/* XPM */
static char *result[] = {
/* columns rows colors chars-per-pixel */
"64 64 171 2 ",
"   c black",
".  c #000102",
"X  c gray1",
"o  c #000507",
"O  c #0A0000",
"+  c #0B0000",
"@  c #080102",
"#  c #010508",
"$  c #030508",
"%  c #010609",
"&  c #000709",
"*  c #01060A",
"=  c #01070A",
"-  c #01060B",
";  c #0B060A",
":  c #0B070B",
">  c #0C0C0C",
",  c gray6",
"<  c #140000",
"1  c #020C13",
"2  c #020C14",
"3  c #03141F",
"4  c #0D141F",
"5  c #101010",
"6  c #101518",
"7  c #101519",
"8  c #1E1E1E",
"9  c #270202",
"0  c #2A0202",
"q  c #280304",
"w  c #21080C",
"e  c #29080C",
"r  c #29090D",
"t  c #320202",
"y  c #041926",
"u  c #041927",
"i  c #061927",
"p  c #041A28",
"a  c #041A29",
"s  c #071E2E",
"d  c #0C1A29",
"f  c #0C1B2A",
"g  c #051F31",
"h  c #241C2B",
"j  c #102532",
"k  c #102533",
"l  c #11283E",
"z  c gray19",
"x  c gray23",
"c  c #3C3C3C",
"v  c #3F3F3F",
"b  c #4A0404",
"n  c #670707",
"m  c #7A0909",
"M  c #790E10",
"N  c #7A0E12",
"B  c #7A0F13",
"V  c #641B26",
"C  c #7D222F",
"Z  c #652130",
"A  c #7D2231",
"S  c #7D2332",
"D  c #7D2636",
"F  c #7E2636",
"G  c #7E2739",
"H  c #072E48",
"J  c #0B3D5D",
"K  c #2B3F5F",
"L  c #672F45",
"P  c #68354F",
"I  c #3C4143",
"U  c #3D4144",
"Y  c #33444F",
"T  c #0C4163",
"R  c #1A4C6C",
"E  c #0D4C75",
"W  c #0E4C75",
"Q  c #0D4D76",
"!  c #0E4D76",
"~  c #164C75",
"^  c #154D77",
"/  c #104F78",
"(  c #114F78",
")  c #164E78",
"_  c #0E517C",
"`  c #0E527E",
"'  c #0F527F",
"]  c #10517C",
"[  c #11517C",
"{  c #18517C",
"}  c #19517C",
"|  c #2B4569",
" . c #2C4569",
".. c #354E77",
"X. c #3F4E77",
"o. c #354F79",
"O. c #2D537E",
"+. c #2E537E",
"@. c #35507A",
"#. c #35537E",
"$. c #36537E",
"%. c #38537E",
"&. c #4B4B4B",
"*. c #544161",
"=. c #6F6F6F",
"-. c #810909",
";. c #830909",
":. c #8B0909",
">. c #970B0B",
",. c #981014",
"<. c #981114",
"1. c #981115",
"2. c #99161D",
"3. c #99161E",
"4. c #A10B0B",
"5. c #A30B0B",
"6. c #A90B0B",
"7. c #AB0B0B",
"8. c #AB0C0C",
"9. c #A90D0E",
"0. c #A40F12",
"q. c #A41012",
"w. c #A21014",
"e. c #A21114",
"r. c #A21115",
"t. c #8E1D28",
"y. c #8F1D28",
"u. c #87212F",
"i. c #87222F",
"p. c #852332",
"a. c #0F5786",
"s. c #105F92",
"d. c #1A5F92",
"f. c #2E5988",
"g. c #2F5988",
"h. c #365481",
"j. c #365581",
"k. c #245F92",
"l. c #1A6093",
"z. c #11659B",
"x. c #13659B",
"c. c #11659C",
"v. c #11669D",
"b. c #11669E",
"n. c #19659B",
"m. c #1B659B",
"M. c #1C659B",
"N. c #1B659C",
"B. c #1B669C",
"V. c #19669E",
"C. c #19679E",
"Z. c #116AA2",
"A. c #126AA2",
"S. c #146AA2",
"D. c #126BA4",
"F. c #126BA5",
"G. c #909090",
"H. c #91969A",
"J. c gray60",
"K. c #B4B4B4",
"L. c #B4B5B6",
"P. c #B6B6B6",
"I. c #C0C0C0",
"U. c #C3C3C3",
"Y. c gray81",
"T. c #E1E1E1",
"R. c gray94",
"E. c #F3F3F3",
"W. c gray99",
"Q. c white",
"!. c None",
/* pixels */
"!.!.!.!.!.!.!.!.!.!.!.!.!.!.!.!.!.!.!.!.                                        !.!.!.!.!.!.!.!.!.!.!.!.!.!.!.!.!.!.!.!.!.!.!.!.",
"!.!.!.!.!.!.!.!.!.!.!.!.!.!.!.!.!.!.!.!.                                        !.!.!.!.!.!.!.!.!.!.!.!.!.!.!.!.!.!.!.!.!.!.!.!.",
"!.!.!.!.!.!.!.!.!.!.!.!.!.!.!.!.!.!.!.!.O + O O O O O @ $ * * * * * * $ @ O + O !.!.!.!.!.!.!.!.!.!.!.!.!.!.!.!.!.!.!.!.!.!.!.!.",
"!.!.!.!.!.!.!.!.!.!.!.!.!.!.!.!.!.!.!.!.9 0 0 0 0 0 q w 4 i a a a a i 4 w q 0 9 !.!.!.!.!.!.!.!.!.!.!.!.!.!.!.!.!.!.!.!.!.!.!.!.",
"!.!.!.!.!.!.!.!.!.!.!.!.            O 9 n m -.-.-.-.M V K ~ _ _ _ _ ~ K V M m n 9 O             !.!.!.!.!.!.!.!.!.!.!.!.!.!.!.!.",
"!.!.!.!.!.!.!.!.!.!.!.!.            + 0 m >.4.4.4.4.<.C ..d.z.z.z.z.d...C <.>.m 0 +             !.!.!.!.!.!.!.!.!.!.!.!.!.!.!.!.",
"!.!.!.!.!.!.!.!.!.!.!.!.= - * * * * : r N ,.w.0.9.8.r.p.%.m.F.F.F.F.m.%.p.r.4.;.t < O @ $ * - = !.!.!.!.!.!.!.!.!.!.!.!.!.!.!.!.",
"!.!.!.!.!.!.!.!.!.!.!.!.y a a a a a f h Z A u.t.r.9.r.p.%.m.F.F.F.F.m.%.p.r.5.:.b t q w 4 i a y !.!.!.!.!.!.!.!.!.!.!.!.!.!.!.!.",
"!.!.!.!.!.!.!.!.    & y T ! _ _ _ _ [ } O.#.X.*.y.q.r.p.%.m.F.F.F.F.m.%.p.r.6.4.:.;.M V K ~ ! T y &     !.!.!.!.!.!.!.!.!.!.!.!.",
"!.!.!.!.!.!.!.!.    * p Q s.z.z.z.z.z.x.n.m.k.X.i.e.r.p.%.m.F.F.F.F.m.%.p.r.7.6.5.4.<.C ..d.s.Q p *     !.!.!.!.!.!.!.!.!.!.!.!.",
"!.!.!.!.!.!.!.!.= - 2 g ` z.F.F.F.F.F.F.F.F.m.%.p.r.e.i.X.k.N.V.S.D.B.j.G 3.w.0.9.8.e.i.X.k.d.^ s 1 - = !.!.!.!.!.!.!.!.!.!.!.!.",
"!.!.!.!.!.!.!.!.y a g H a.v.F.F.F.F.F.F.F.F.m.%.p.r.q.y.*.X.h.f.M.S.C.g.P G u.t.r.9.q.y.*.X.o.| l s a y !.!.!.!.!.!.!.!.!.!.!.!.",
"!.!.!.!.    & y T ! ' a.z.Z.F.F.F.F.F.F.F.F.m.%.p.r.9.r.t.u.G P g.C.S.M.f.h.X.*.y.q.9.r.t.u.D L  .) ! T y &     !.!.!.!.!.!.!.!.",
"!.!.!.!.    * p Q s.c.b.A.D.F.F.F.F.F.F.F.F.m.%.p.r.8.9.0.w.3.G j.B.D.S.V.N.k.X.i.e.8.9.0.w.2.F @.l.s.Q p *     !.!.!.!.!.!.!.!.",
"!.!.!.!.    * a _ z.F.F.F.F.F.F.F.F.F.F.F.F.B.j.G 3.w.0.9.8.r.p.%.m.F.F.F.F.B.j.G 3.w.0.9.8.r.p.%.m.z._ a *     !.!.!.!.!.!.!.!.",
"!.!.!.!.    * a _ z.F.F.F.F.F.F.F.F.F.F.F.F.C.g.P G u.t.r.9.r.p.%.m.F.F.F.F.C.g.P G u.t.r.9.r.p.%.m.z._ a *     !.!.!.!.!.!.!.!.",
"!.!.!.!.    * a _ z.F.F.F.F.F.F.F.F.F.F.F.F.S.M.f.h.X.*.y.q.r.p.%.m.F.F.F.F.S.M.f.h.X.*.y.q.r.p.%.m.z._ a *     !.!.!.!.!.!.!.!.",
"!.!.!.!.    * a _ z.F.F.F.F.F.F.F.F.F.F.F.F.D.S.V.N.k.X.i.e.r.p.%.m.F.F.F.F.D.S.V.N.k.X.i.e.r.p.%.m.z._ a *     !.!.!.!.!.!.!.!.",
"!.!.!.!.= - 2 g ` z.F.F.F.F.F.F.F.F.F.F.F.F.F.F.F.F.m.%.p.r.r.p.%.m.F.F.F.F.F.F.F.F.m.%.p.r.r.p.%.m.z.` g 2 - = !.!.!.!.!.!.!.!.",
"!.!.!.!.y a g H a.v.F.F.F.F.F.F.F.F.F.F.F.F.F.F.F.F.m.%.p.r.r.p.%.m.F.F.F.F.F.F.F.F.m.%.p.r.r.p.%.m.v.a.H g a y !.!.!.!.!.!.!.!.",
"    & y T ! ' a.z.Z.F.F.F.F.F.F.F.F.F.F.F.F.F.F.F.F.m.%.p.r.r.p.%.m.F.F.F.F.F.F.F.F.m.%.p.r.r.p.%.m.Z.z.a.' ! T y &     !.!.!.!.",
"    * p Q s.c.b.A.D.F.F.F.F.F.F.F.F.F.F.F.F.F.F.F.F.m.%.p.r.r.p.%.m.F.F.F.F.F.F.F.F.m.%.p.r.r.p.%.m.D.A.b.c.s.Q p *     !.!.!.!.",
"    * a _ z.F.F.F.F.F.F.F.F.F.F.F.F.F.F.F.F.F.F.F.F.m.$.S 1.<.C ..d.z.z.z.z.z.z.z.z.d...C <.1.S $.m.D.A.b.c.s.E y %     !.!.!.!.",
"    * a _ z.F.F.F.F.F.F.F.F.F.F.F.F.F.F.F.F.F.F.F.F.n.+.Z B M V K ~ _ _ _ _ _ _ _ _ ~ K V M B Z +.n.Z.z.a.' W J 3 o     !.!.!.!.",
"    * a _ z.F.F.F.F.F.F.F.F.F.F.F.F.F.F.F.F.F.F.F.F.x.{ h e q w 4 i a a a a a a a a i 4 w q e h { x.v.a.H g u 3 * .     !.!.!.!.",
"    * a _ z.F.F.F.F.F.F.F.F.F.F.F.F.F.F.F.F.F.F.F.F.z.] d ; O @ $ * * * * * * * * * * $ @ O ; d ] z.z.` g 2 * # .       !.!.!.!.",
"    % y E s.z.z.z.z.z.z.z.z.z.z.z.z.z.z.z.z.z.z.z.z.s.E y %   X > , , , , , , , , , , > X   % y E s.s./ j 6 , > X       !.!.!.!.",
"    o 3 J W _ _ _ _ _ _ _ _ _ _ _ _ _ _ _ _ _ _ _ _ W J 3 o X , z c v v v v v v v v c z , X o 3 J W ( R Y I c z , X     !.!.!.!.",
"    . * 3 u a a a a a a a a a a a a a a a a a a a a u 3 * . > z G.K.I.I.I.I.I.I.I.I.K.G.z > . * 3 u k Y H.L.K.G.z >     !.!.!.!.",
"      . # * * * * * * * * * * * * * * * * * * * * * * # .   , c K.T.R.R.R.R.R.R.R.R.T.K.c ,   . # * 7 U L.T.T.K.c ,     !.!.!.!.",
"      X > , , , , , , , , , , , , , , , , , , , , , , > X   , v I.R.Q.Q.Q.Q.Q.Q.Q.Q.R.I.v ,   X > , 8 &.U.R.R.I.v ,     !.!.!.!.",
"    X , z c v v v v v v v v v v v v v v v v v v v v c z , X , v I.R.Q.Q.Q.Q.Q.Q.Q.Q.R.I.v , X , z c &.=.Y.E.R.I.v ,     !.!.!.!.",
"    > z G.K.I.I.I.I.I.I.I.I.I.I.I.I.I.I.I.I.I.I.I.I.K.G.z > , v I.R.Q.Q.Q.Q.Q.Q.Q.Q.R.I.v , > z G.K.U.Y.R.W.R.I.v ,     !.!.!.!.",
"    , c K.T.R.R.R.R.R.R.R.R.R.R.R.R.R.R.R.R.R.R.R.R.T.K.c , , v I.R.Q.Q.Q.Q.Q.Q.Q.Q.R.I.v , , c K.T.R.E.W.Q.R.I.v ,     !.!.!.!.",
"    , v I.R.Q.Q.Q.Q.Q.Q.Q.Q.Q.Q.Q.Q.Q.Q.Q.Q.Q.Q.Q.Q.R.I.v , , v I.R.Q.Q.Q.Q.Q.Q.Q.Q.R.I.v , , v I.R.Q.Q.Q.Q.R.I.v ,     !.!.!.!.",
"    , v I.R.Q.Q.Q.Q.Q.Q.Q.Q.Q.Q.Q.Q.Q.Q.Q.Q.Q.Q.Q.Q.R.I.v , , v I.R.Q.Q.Q.Q.Q.Q.Q.Q.R.I.v , , v I.R.Q.Q.Q.Q.R.I.v ,     !.!.!.!.",
"    , v I.R.Q.Q.Q.Q.Q.Q.Q.Q.Q.Q.Q.Q.Q.Q.Q.Q.Q.Q.Q.Q.R.I.v , , v I.R.Q.Q.Q.Q.Q.Q.Q.Q.R.I.v , , v I.R.Q.Q.Q.Q.R.I.v ,     !.!.!.!.",
"    , v I.R.Q.Q.Q.Q.Q.Q.Q.Q.Q.Q.Q.Q.Q.Q.Q.Q.Q.Q.Q.Q.R.I.v , , v I.R.Q.Q.Q.Q.Q.Q.Q.Q.R.I.v , , v I.R.Q.Q.Q.Q.R.I.v ,     !.!.!.!.",
"    5 v P.T.R.E.W.Q.Q.Q.Q.Q.Q.Q.Q.Q.Q.Q.Q.Q.Q.Q.Q.Q.R.I.v , , c K.T.R.R.R.R.R.R.R.R.T.K.c , , v I.R.Q.W.E.R.T.P.v 5     !.!.!.!.",
"    5 x J.P.U.Y.R.W.Q.Q.Q.Q.Q.Q.Q.Q.Q.Q.Q.Q.Q.Q.Q.Q.R.I.v , > z G.K.I.I.I.I.I.I.I.I.K.G.z > , v I.R.W.R.Y.U.P.J.x 5     !.!.!.!.",
"!.!.!.!.x v &.=.Y.E.Q.Q.Q.Q.Q.Q.Q.Q.Q.Q.Q.Q.Q.Q.Q.Q.R.I.v , X , z c v v v v v v v v c z , X , v I.R.E.Y.=.&.v x !.!.!.!.!.!.!.!.",
"!.!.!.!.5 5 8 &.U.R.Q.Q.Q.Q.Q.Q.Q.Q.Q.Q.Q.Q.Q.Q.Q.Q.R.I.v ,   X > , , , , , , , , , , > X   , v I.R.R.U.&.8 5 5 !.!.!.!.!.!.!.!.",
"!.!.!.!.    , v I.R.Q.Q.Q.Q.Q.Q.Q.Q.Q.Q.Q.Q.Q.Q.Q.Q.R.U.&.8 , , , , , , , , , , , , , , , , 8 &.U.R.R.I.v ,     !.!.!.!.!.!.!.!.",
"!.!.!.!.    , v I.R.Q.Q.Q.Q.Q.Q.Q.Q.Q.Q.Q.Q.Q.Q.Q.Q.E.Y.=.&.v v v v v v v v v v v v v v v v &.=.Y.E.R.I.v ,     !.!.!.!.!.!.!.!.",
"!.!.!.!.    , v I.R.Q.Q.Q.Q.Q.Q.Q.Q.Q.Q.Q.Q.Q.Q.Q.Q.W.R.Y.U.I.I.I.I.I.I.I.I.I.I.I.I.I.I.I.I.U.Y.R.W.R.I.v ,     !.!.!.!.!.!.!.!.",
"!.!.!.!.    , v I.R.Q.Q.Q.Q.Q.Q.Q.Q.Q.Q.Q.Q.Q.Q.Q.Q.Q.W.E.R.R.R.R.R.R.R.R.R.R.R.R.R.R.R.R.R.R.E.W.Q.R.I.v ,     !.!.!.!.!.!.!.!.",
"!.!.!.!.    5 v P.T.R.E.W.Q.Q.Q.Q.Q.Q.Q.Q.Q.Q.Q.Q.Q.Q.Q.Q.Q.Q.Q.Q.Q.Q.Q.Q.Q.Q.Q.Q.Q.Q.Q.Q.Q.Q.W.E.R.T.P.v 5     !.!.!.!.!.!.!.!.",
"!.!.!.!.    5 x J.P.U.Y.R.W.Q.Q.Q.Q.Q.Q.Q.Q.Q.Q.Q.Q.Q.Q.Q.Q.Q.Q.Q.Q.Q.Q.Q.Q.Q.Q.Q.Q.Q.Q.Q.Q.W.R.Y.U.P.J.x 5     !.!.!.!.!.!.!.!.",
"!.!.!.!.!.!.!.!.x v &.=.Y.E.Q.Q.Q.Q.Q.Q.Q.Q.Q.Q.Q.Q.Q.Q.Q.Q.Q.Q.Q.Q.Q.Q.Q.Q.Q.Q.Q.Q.Q.Q.Q.Q.E.Y.=.&.v x !.!.!.!.!.!.!.!.!.!.!.!.",
"!.!.!.!.!.!.!.!.5 5 8 &.U.R.Q.Q.Q.Q.Q.Q.Q.Q.Q.Q.Q.Q.Q.Q.Q.Q.Q.Q.Q.Q.Q.Q.Q.Q.Q.Q.Q.Q.Q.Q.Q.Q.R.U.&.8 5 5 !.!.!.!.!.!.!.!.!.!.!.!.",
"!.!.!.!.!.!.!.!.    5 v P.T.R.R.R.R.R.E.W.Q.Q.Q.Q.Q.Q.Q.Q.Q.Q.Q.Q.Q.Q.Q.Q.Q.Q.W.E.R.R.R.R.R.T.P.v 5     !.!.!.!.!.!.!.!.!.!.!.!.",
"!.!.!.!.!.!.!.!.    5 x J.P.I.I.I.I.U.Y.R.W.Q.Q.Q.Q.Q.Q.Q.Q.Q.Q.Q.Q.Q.Q.Q.Q.W.R.Y.U.I.I.I.I.P.J.x 5     !.!.!.!.!.!.!.!.!.!.!.!.",
"!.!.!.!.!.!.!.!.!.!.!.!.x v v v v v &.=.Y.E.Q.Q.Q.Q.Q.Q.Q.Q.Q.Q.Q.Q.Q.Q.Q.Q.E.Y.=.&.v v v v v x !.!.!.!.!.!.!.!.!.!.!.!.!.!.!.!.",
"!.!.!.!.!.!.!.!.!.!.!.!.5 5 , , , , 8 &.U.R.Q.Q.Q.Q.Q.Q.Q.Q.Q.Q.Q.Q.Q.Q.Q.Q.R.U.&.8 , , , , 5 5 !.!.!.!.!.!.!.!.!.!.!.!.!.!.!.!.",
"!.!.!.!.!.!.!.!.!.!.!.!.            5 v P.T.R.R.R.R.R.R.R.R.R.R.R.R.R.R.R.R.T.P.v 5             !.!.!.!.!.!.!.!.!.!.!.!.!.!.!.!.",
"!.!.!.!.!.!.!.!.!.!.!.!.            5 x J.P.I.I.I.I.I.I.I.I.I.I.I.I.I.I.I.I.P.J.x 5             !.!.!.!.!.!.!.!.!.!.!.!.!.!.!.!.",
"!.!.!.!.!.!.!.!.!.!.!.!.!.!.!.!.!.!.!.!.x v v v v v v v v v v v v v v v v v v x !.!.!.!.!.!.!.!.!.!.!.!.!.!.!.!.!.!.!.!.!.!.!.!.",
"!.!.!.!.!.!.!.!.!.!.!.!.!.!.!.!.!.!.!.!.5 5 , , , , , , , , , , , , , , , , 5 5 !.!.!.!.!.!.!.!.!.!.!.!.!.!.!.!.!.!.!.!.!.!.!.!.",
"!.!.!.!.!.!.!.!.!.!.!.!.!.!.!.!.!.!.!.!.                                        !.!.!.!.!.!.!.!.!.!.!.!.!.!.!.!.!.!.!.!.!.!.!.!.",
"!.!.!.!.!.!.!.!.!.!.!.!.!.!.!.!.!.!.!.!.                                        !.!.!.!.!.!.!.!.!.!.!.!.!.!.!.!.!.!.!.!.!.!.!.!.",
"!.!.!.!.!.!.!.!.!.!.!.!.!.!.!.!.!.!.!.!.!.!.!.!.!.!.!.!.!.!.!.!.!.!.!.!.!.!.!.!.!.!.!.!.!.!.!.!.!.!.!.!.!.!.!.!.!.!.!.!.!.!.!.!.",
"!.!.!.!.!.!.!.!.!.!.!.!.!.!.!.!.!.!.!.!.!.!.!.!.!.!.!.!.!.!.!.!.!.!.!.!.!.!.!.!.!.!.!.!.!.!.!.!.!.!.!.!.!.!.!.!.!.!.!.!.!.!.!.!.",
"!.!.!.!.!.!.!.!.!.!.!.!.!.!.!.!.!.!.!.!.!.!.!.!.!.!.!.!.!.!.!.!.!.!.!.!.!.!.!.!.!.!.!.!.!.!.!.!.!.!.!.!.!.!.!.!.!.!.!.!.!.!.!.!.",
"!.!.!.!.!.!.!.!.!.!.!.!.!.!.!.!.!.!.!.!.!.!.!.!.!.!.!.!.!.!.!.!.!.!.!.!.!.!.!.!.!.!.!.!.!.!.!.!.!.!.!.!.!.!.!.!.!.!.!.!.!.!.!.!."
};
