/* XPM */
static char *result[] = {
/* columns rows colors chars-per-pixel */
"64 64 104 2 ",
"   c #41B412",
".  c #43BD13",
"X  c #44D00D",
"o  c #46C414",
"O  c #47CB14",
"+  c #49CD15",
"@  c #47D111",
"#  c #4AD215",
"$  c #4DDA16",
"%  c #4ED418",
"&  c #52D41D",
"*  c #53DA1C",
"=  c #58DA1F",
"-  c #55D522",
";  c #5AD525",
":  c #59DB21",
">  c #5BD62A",
",  c #60DE27",
"<  c #62D62B",
"1  c #63DA2A",
"2  c #6CD735",
"3  c #63D834",
"4  c #66D838",
"5  c #6BDA3E",
"6  c #74D83D",
"7  c #6FDB42",
"8  c #70DB45",
"9  c #75DD4B",
"0  c #78DD4D",
"q  c #7ADE52",
"w  c #82DF5C",
"e  c #83E15D",
"r  c #86E162",
"t  c #8BE267",
"y  c #8FE36C",
"u  c #90E56B",
"i  c #95E96F",
"p  c #94E472",
"a  c #99E57A",
"s  c #003582",
"d  c #033B85",
"f  c #073E88",
"g  c #083F88",
"h  c #0C438A",
"j  c #13478D",
"k  c #184C8F",
"l  c #1D4F91",
"z  c #225494",
"x  c #285896",
"c  c #2F5E9A",
"v  c #315E9C",
"b  c #3F69A4",
"n  c #446DA4",
"m  c #4770A6",
"M  c #6184B2",
"N  c #6488B3",
"B  c #6686B9",
"V  c #6D8EB9",
"C  c #7392BB",
"Z  c #9FE781",
"A  c #A1E784",
"S  c #ADEA92",
"D  c #B0EB97",
"F  c #B4EC9C",
"G  c #BAEEA3",
"H  c #BEEEA9",
"J  c #BAF0A0",
"K  c #C6F1B3",
"L  c #CAF1B8",
"P  c #D0F2BF",
"I  c #829EC2",
"U  c #88A2C6",
"Y  c #8EA8C7",
"T  c #9AB1CE",
"R  c #9EB3D0",
"E  c #A7BCD4",
"W  c #A8B9D9",
"Q  c #B4C5DA",
"!  c #B8C4E2",
"~  c #CFF3C0",
"^  c #D5F4C6",
"/  c #D6F9C1",
"(  c #D7F5CA",
")  c #D9F5CB",
"_  c #DEF7D3",
"`  c #DEF8D0",
"'  c #E0F7D5",
"]  c #E7FADD",
"[  c #C6D3E3",
"{  c #CCD8E6",
"}  c #C9D2E9",
"|  c #D0DBE8",
" . c #DAE3EC",
".. c #E4F6E1",
"X. c #EAFAE3",
"o. c #F1FBEB",
"O. c #E4E7F6",
"+. c #E8EDF6",
"@. c #EEF2F6",
"#. c #F1F4F7",
"$. c #F9FEF5",
"%. c #F3F6F9",
"&. c #FFFFFF",
"*. c None",
/* pixels */
"*.*.*.*.*.*.*.*.*.*.*.*.*.*.*.*.*.*.*.*.*.*.*.*.*.*.*.*.*.*.*.*.*.*.*.*.*.*.*.*.*.*.*.*.*.*.*.*.*.*.*.*.*.*.*.*.*.*.*.*.*.*.*.*.",
"*.*.*.*.*.*.*.*.*.*.*.*.*.*.*.*.*.*.*.*.*.*.*.*.*.*.*.*.*.*.*.*.*.*.*.*.*.*.*.*.*.*.*.*.*.*.*.*.*.*.*.*.*.*.*.*.*.*.*.*.*.*.*.*.",
"*.*.*.*.*.*.*.*.*.*.*.*.*.*.*.*.*.*.*.*.*.*.*.*.*.*.*.*.*.*.*.*.*.*.*.*.*.*.*.*.*.*.*.*.*.*.*.*.*.*.*.*.*.*.*.*.*.*.*.*.*.*.*.*.",
"*.*.*.*.*.*.*.*.*.*.*.*.*.*.*.*.*.*.*.*.*.*.*.*.*.*.< 2 2 2 2 6 8 2 2 2 2 < *.*.*.*.*.*.*.*.*.*.*.*.*.*.*.*.*.*.*.*.*.*.*.*.*.*.",
"*.*.*.*.*.*.*.*.*.*.*.*.*.*.*.*.*.*.*.*.*.*.*.; < 1 , : * % # # + $ $ * : , 1 < ; *.*.*.*.*.*.*.*.*.*.*.*.*.*.*.*.*.*.*.*.*.*.*.",
"*.*.*.*.*.*.*.*.*.*.*.*.*.*.*.*.*.*.*.*.*.& : * $ # @ # # # # # # # + # # # # $ * = & *.*.*.*.*.*.*.*.*.*.*.*.*.*.*.*.*.*.*.*.*.",
"*.*.*.*.*.*.*.*.*.*.*.*.*.*.*.*.*.*.*.% * $ # # # + # # # # # # # # # # # # + # # # $ * % *.*.*.*.*.*.*.*.*.*.*.*.*.*.*.*.*.*.*.",
"*.*.*.*.*.*.*.*.*.*.*.*.*.*.*.*.*.# $ $ # # # # # # # # # # # # # # # # # # # # # # + # $ $ # *.*.*.*.*.*.*.*.*.*.*.*.*.*.*.*.*.",
"*.*.*.*.*.*.*.*.*.*.*.*.*.*.*.*.$ $ # # # # # # # # # # # # # # # # # # # # # # # # # # # # * # *.*.*.*.*.*.*.*.*.*.*.*.*.*.*.*.",
"*.*.*.*.*.*.*.*.*.*.*.*.*.*.*.$ # # # # # # # # # # # # # # # # # # # # # # # # # # # # # # # $ $ *.*.*.*.*.*.*.*.*.*.*.*.*.*.*.",
"*.*.*.*.*.*.*.*.*.*.*.*.*.O $ # # + # # # # # # # # # # # # # # # # # # # # # # # # # # # # # # # $ + *.*.*.*.*.*.*.*.*.*.*.*.*.",
"*.*.*.*.*.*.*.*.*.*.*.*.+ $ # # # # # # # # # # # # # # # # # # # # # # # # # # + # # # # # # # # # $ + *.*.*.*.*.*.*.*.*.*.*.*.",
"*.*.*.*.*.*.*.*.*.*.*.*.$ # # # # # # # # # # # # # + # # # # # # # # # # # # # # # # # # # # # # # # $ *.*.*.*.*.*.*.*.*.*.*.*.",
"*.*.*.*.*.*.*.*.*.*.*.# # # # # # # # # # # # # # # # # # # # # # # # + # # # # # # # # # # # # # # # # $ *.*.*.*.*.*.*.*.*.*.*.",
"*.*.*.*.*.*.*.*.*.*.# $ # # # # # # # # # # # # # # # # # # # # # # # # # # # # # # # # # # # # # # # # $ # *.*.*.*.*.*.*.*.*.*.",
"*.*.*.*.*.*.*.*.*.*.$ # # # # # # # # # # # # # # # # # # # # # # # # # # # # # # # # # # # # # # # # # # $ *.*.*.*.*.*.*.*.*.*.",
"*.*.*.*.*.*.*.*.*.# # # # # # # # # # # # # # # # # # # # # # # + # # # # # # # # # # # # # # # # # # # # # # *.*.*.*.*.*.*.*.*.",
"*.*.*.*.*.*.*.*.+ $ # # # # # # # # # # # # # # # # # # # # # # # # # # # # # # # # # # # # # # # # # # # # $ # *.*.*.*.*.*.*.*.",
"*.*.*.*.*.*.*.*.# # # # # # # # # # # # # # # # @ X @ X @ # # # # # # # # # # # # # # # # # X X X + # # # # # # *.*.*.*.*.*.*.*.",
"*.*.*.*.*.*.*.*.$ # # # # # # # # # # # # # X # 4 w r 0 ; X + # # # # # # # # # # # # @ X & 9 r e 5 # X # # # $ *.*.*.*.*.*.*.*.",
"*.*.*.*.*.*.*.# $ # # # # # # # # # # # # X q ~ $.&.&.&.X.D > X # # # # # # # # # # @ % A ] &.&.&.&.) t # @ # $ # *.*.*.*.*.*.*.",
"*.*.*.*.*.*.*.# # # # # # # # # # # # # X A &.&.&.&.&.&.&.&.] 5 X # # # # # # # # @ > ( &.&.&.&.&.&.&.&.F # # # # *.*.*.*.*.*.*.",
"*.*.*.*.*.*.*.$ # # # # # # # + # # # X u &.&.&.&.&.&.&.&.&.&.] > @ # # # # # # + % ^ &.&.&.&.&.&.&.&.&.&.S X # $ *.*.*.*.*.*.*.",
"*.*.*.*.*.*.O $ # # # # # # # # # # @ > o.&.&.&.&.&.&. .Y U { &.F @ # # # # # # X a &.&.&.&.&.&.&.Q I T @.&.8 X $ O *.*.*.*.*.*.",
"*.*.*.*.*.*.+ $ # # # # # # # # # # X a &.&.&.&.&.&.Q j s s h T $.> @ # # # # # % ' &.&.&.&.&.%.M s s s c O.J X $ + *.*.*.*.*.*.",
"*.*.*.*.*.*.+ # # # # # # # # # # # X K &.&.&.&.&.#.x d f f d j O.e X # # # # X 3 $.&.&.&.&.&.E s f f h s B ] # # + *.*.*.*.*.*.",
"*.*.*.*.*.*.# # # # # # # # # # # # @ ^ &.&.&.&.&.| f f h f h s ! i X # # # # X 0 &.&.&.&.&.&.V s h f f d v ] - # # *.*.*.*.*.*.",
"*.*.*.*.*.*.# # # # # # # # # # # # @ P &.&.&.&.&. .h f f f f f } u X # # # $ X 7 &.&.&.&.&.&.I s f f h d b X.& # # *.*.*.*.*.*.",
"*.*.*.*.*.*.# # # # # # # # # # # # X D &.&.&.&.&.&.N s d d s n $.7 X # # # # + - o.&.&.&.&.&. .k s f s s W / @ # # *.*.*.*.*.*.",
"*.*.*.*.*.*.# # # # # # # # # # # # X 9 &.&.&.&.&.&.%.C x z M +._ # # # # # # # @ H &.&.&.&.&.&.[ n l c T &.p X # # *.*.*.*.*.*.",
"*.*.*.*.*.*.# # # # # # # # # # # # # @ K &.&.&.&.&.&.&.%.@.&.&.w @ # # # # # # X 5 $.&.&.&.&.&.&.&.@.$.&.' % # # # *.*.*.*.*.*.",
"*.*.*.*.*.*.# # # # # # # # # # # + # @ > _ &.&.&.&.&.&.&.&.&.S X # # # # # # # # X y &.&.&.&.&.&.&.&.&.o.7 @ # # # *.*.*.*.*.*.",
"*.*.*.*.*.*.# # # # # # # # # # # # # # X > K &.&.&.&.&.&.o.a # # # # # # # # # # # O r ..&.&.&.&.&.&.( 5 X # # # # *.*.*.*.*.*.",
"*.*.*.*.*.*.# # # # # # # # # # # # # # # @ O 0 F ^ _ L Z 3 X # # # # # # # # # # # # X ; p K ) ) G r % @ # # # # + *.*.*.*.*.*.",
"*.*.*.*.*.*.# # # # # # # # # # # # # # # # # @ X # # X X O # # # # # # # + # # # # # # # X X # # X @ # # # # # # # *.*.*.*.*.*.",
"*.*.*.*.*.*.# # # # # # # # # # # # # # # # # # # # # # # # # # # # # # # # # # # # # # # # # # @ + # # # # # # # # *.*.*.*.*.*.",
"*.*.*.*.*.*.# # # # # # # # # # # # # # # # # # # # # # + % # # # # # # # # # # # # # # # # # # # # # # # # # # # # *.*.*.*.*.*.",
"*.*.*.*.*.*.# # # # # # # # # # # # # # # # # # # # # # # # # # # # # # # # # # # # # # # # # # # # # # # # # # # # *.*.*.*.*.*.",
"*.*.*.*.*.*.# # # # # # # # # # # # # # # # # # # # # # # # # # # # # # # # # # # # # # # # # # # # # # # # # # # # *.*.*.*.*.*.",
"*.*.*.*.*.*.# # # # # # # # # # # # # # # # # # # # # # # # # # # # # # # # # # # # # # # # # # # # # # # # # # # # *.*.*.*.*.*.",
"*.*.*.*.*.*.# # # # # # # # # # # # # # # # # # # # # # # # # # # # # # # # # # # + # # # # # # + # # # # # # # # # *.*.*.*.*.*.",
"*.*.*.*.*.*.# # # # # # # # # # # # # # # # # # # # # # # # # # # # # # # # # # # # # # # # # # # # # # # # # # # # *.*.*.*.*.*.",
"*.*.*.*.*.*.# # # # # # # # # # # # # # # # # # # # # # # # # # # # # # # # # # # # # # # # # # # # # # # # # # # # *.*.*.*.*.*.",
"*.*.*.*.*.*.# # # # + # # # # # # # # # # # # # # # # # # # # # # # # # # # # # # # # # # # # # # # # # # # # # # # *.*.*.*.*.*.",
"*.*.*.*.*.*.# # # # # # # # # # # # # # # # # # # # # # # # # # + # # # # # # # # # # # # # # # # # # # # # # # # # *.*.*.*.*.*.",
"*.*.*.*.*.*.# # # # # # # # # # # # # # # # # # # # # # # # # # # # # # # # # # # # # # # # # # # # # # # # # # # # *.*.*.*.*.*.",
"*.*.*.*.*.*.# # # # # # # # # # # # # # # # # # # + # # # # # # # # # # # # # # # # # # # # # # # # # # # # # # # # *.*.*.*.*.*.",
"*.*.*.*.*.*.# # # # # # # # # # # # # + # # # # # # # # # # # # # # # # # # # # # # # # # # # # # # # # # # # # # # *.*.*.*.*.*.",
"*.*.*.*.*.*.# # # # # # # # # # # # # # # # # # # # # # # # # # # # # # # # # # # # # # # # # # # # # # # # # # # # *.*.*.*.*.*.",
"*.*.*.*.*.*.# # # # # # # # # # # # # # # # # # # # # # # # # # # # # # # # # # + # # # # # # # # # # # # # # # # # *.*.*.*.*.*.",
"*.*.*.*.*.*.# # # # # # # # # # # # # # # # + # # # # # # # # # # # # # # # # # # # # # # # # # # # # # # # # # # # *.*.*.*.*.*.",
"*.*.*.*.*.*.# # # # # # # # # # # # # # # # # # # # # # # # # # # # # # # + # # # # # # # # # # # # # # # # # # # # *.*.*.*.*.*.",
"*.*.*.*.*.*.# # # # # # # # # # # # # # # # # # # # # # # # + # # + # # # # # # # # # # # # # # # # # # # # # # # # *.*.*.*.*.*.",
"*.*.*.*.*.*.# # # # # # # # # # # $ # # # # # # # # # # # # # $ $ # # # # # # # # # # # # # # # # # # # # # # # # # *.*.*.*.*.*.",
"*.*.*.*.*.*.# # # # # # # # % # O + $ # + # # # # # # # # # # O O # $ # # # # # # # # # # # $ + O # $ # # # # # # # *.*.*.*.*.*.",
"*.*.*.*.*.*.# # # # # # # $ o *.*.*.o $ # # # # # # # # $ O *.*.*.*.O % # # # # # # # # # $ o *.*.*.O $ # + # # # # *.*.*.*.*.*.",
"*.*.*.*.*.*.+ # # # # # $ . *.*.*.*.*.o $ # # # # # # # + *.*.*.*.*.*.O $ # # # # # # # $ o *.*.*.*.*.+ $ # # # % + *.*.*.*.*.*.",
"*.*.*.*.*.*.+ $ # # # $ . *.*.*.*.*.*.*.+ $ # # # # # $ *.*.*.*.*.*.*.*.+ $ # # # # # $ O *.*.*.*.*.*.*.+ $ # # # # *.*.*.*.*.*.",
"*.*.*.*.*.*.+ $ # # $ o *.*.*.*.*.*.*.*.*.$ # + # # $ . *.*.*.*.*.*.*.*.*.# # # # # $ # *.*.*.*.*.*.*.*.*.# # # # + *.*.*.*.*.*.",
"*.*.*.*.*.*.*.$ # $ o *.*.*.*.*.*.*.*.*.*.  $ $ $ $ O *.*.*.*.*.*.*.*.*.*.  $ $ # $ # *.*.*.*.*.*.*.*.*.*.*.$ $ $ O *.*.*.*.*.*.",
"*.*.*.*.*.*.*.o # . *.*.*.*.*.*.*.*.*.*.*.*.*.+ + o *.*.*.*.*.*.*.*.*.*.*.*.*.+ + o *.*.*.*.*.*.*.*.*.*.*.*.  + + *.*.*.*.*.*.*.",
"*.*.*.*.*.*.*.*.*.*.*.*.*.*.*.*.*.*.*.*.*.*.*.*.*.*.*.*.*.*.*.*.*.*.*.*.*.*.*.*.*.*.*.*.*.*.*.*.*.*.*.*.*.*.*.*.*.*.*.*.*.*.*.*.",
"*.*.*.*.*.*.*.*.*.*.*.*.*.*.*.*.*.*.*.*.*.*.*.*.*.*.*.*.*.*.*.*.*.*.*.*.*.*.*.*.*.*.*.*.*.*.*.*.*.*.*.*.*.*.*.*.*.*.*.*.*.*.*.*.",
"*.*.*.*.*.*.*.*.*.*.*.*.*.*.*.*.*.*.*.*.*.*.*.*.*.*.*.*.*.*.*.*.*.*.*.*.*.*.*.*.*.*.*.*.*.*.*.*.*.*.*.*.*.*.*.*.*.*.*.*.*.*.*.*."
};
