/* XPM */
static char *result[] = {
/* columns rows colors chars-per-pixel */
"64 64 109 2 ",
"   c #9D1218",
".  c #AD151A",
"X  c #B4151C",
"o  c #BB161C",
"O  c #C5171E",
"+  c #C6181E",
"@  c #CD181F",
"#  c #D1191F",
"$  c #EC151D",
"%  c #CF1820",
"&  c #D41A22",
"*  c #DC1A22",
"=  c #ED1720",
"-  c #E01B22",
";  c #ED1C24",
":  c #F11C25",
">  c #F81D26",
",  c #ED2027",
"<  c #E5252B",
"1  c #EE232B",
"2  c #EE282F",
"3  c #F3222A",
"4  c #E02830",
"5  c #EF2B33",
"6  c #F52B32",
"7  c #EA3037",
"8  c #EF333A",
"9  c #F0363D",
"0  c #F9373E",
"q  c #F23B42",
"w  c #F93940",
"e  c #ED444A",
"r  c #F2434A",
"t  c #FA474E",
"y  c #F1494F",
"u  c #F24C53",
"i  c #EF545A",
"p  c #F25157",
"a  c #F15359",
"s  c #F2585E",
"d  c #EF5D63",
"f  c #F15D62",
"g  c #F5656A",
"h  c #F3696E",
"j  c #F36D72",
"k  c #F47176",
"l  c #FB7477",
"z  c #F4797E",
"x  c #FD7D7F",
"c  c #003582",
"v  c #033B85",
"b  c #073E88",
"n  c #083F88",
"m  c #094088",
"M  c #12468D",
"N  c #1B4D91",
"B  c #225394",
"V  c #285897",
"C  c #2E5E9C",
"Z  c #315F9C",
"A  c #3D6CA5",
"S  c #446DA5",
"D  c #4670A7",
"F  c #F57D82",
"G  c #6285B3",
"H  c #628AB8",
"J  c #6D8EB9",
"K  c #7392BB",
"L  c #F58286",
"P  c #F5868A",
"I  c #F68B8F",
"U  c #F68E92",
"Y  c #F79B9E",
"T  c #F8A1A5",
"R  c #F8A6AA",
"E  c #FAAAAC",
"W  c #F9AEB1",
"Q  c #F9B3B6",
"!  c #FABBBE",
"~  c #829DC3",
"^  c #88A2C6",
"/  c #8EA7C8",
"(  c #97B1CF",
")  c #9BB1CF",
"_  c #9EB3D0",
"`  c #A7BBD5",
"'  c #A3BED9",
"]  c #B4C5DB",
"[  c #B2CCE2",
"{  c #FAC0C3",
"}  c #FBC7C9",
"|  c #FCCCCD",
" . c #FCD2D4",
".. c #FDDBDC",
"X. c #C6D2E3",
"o. c #CCD8E7",
"O. c #C4D9EA",
"+. c #D0DAE8",
"@. c #DAE3ED",
"#. c #DFECF6",
"$. c #FCE4E5",
"%. c #FEEEEE",
"&. c #E7EEF5",
"*. c #EEF2F7",
"=. c #FFF4F4",
"-. c #F2F5F9",
";. c #FEF7F8",
":. c #FFFFFF",
">. c None",
/* pixels */
">.>.>.>.>.>.>.>.>.>.>.>.>.>.>.>.>.>.>.>.>.>.>.>.>.>.>.>.>.>.>.>.>.>.>.>.>.>.>.>.>.>.>.>.>.>.>.>.>.>.>.>.>.>.>.>.>.>.>.>.>.>.>.>.",
">.>.>.>.>.>.>.>.>.>.>.>.>.>.>.>.>.>.>.>.>.>.>.>.>.>.>.>.>.>.>.>.>.>.>.>.>.>.>.>.>.>.>.>.>.>.>.>.>.>.>.>.>.>.>.>.>.>.>.>.>.>.>.>.",
">.>.>.>.>.>.>.>.>.>.>.>.>.>.>.>.>.>.>.>.>.>.>.>.>.>.>.>.>.>.>.>.>.>.>.>.>.>.>.>.>.>.>.>.>.>.>.>.>.>.>.>.>.>.>.>.>.>.>.>.>.>.>.>.",
">.>.>.>.>.>.>.>.>.>.>.>.>.>.>.>.>.>.>.>.>.>.>.>.>.>.>.f d f f f f f f d d >.>.>.>.>.>.>.>.>.>.>.>.>.>.>.>.>.>.>.>.>.>.>.>.>.>.>.",
">.>.>.>.>.>.>.>.>.>.>.>.>.>.>.>.>.>.>.>.>.>.>.a s p t 0 6 3 3 ; : : 3 6 0 t u s a >.>.>.>.>.>.>.>.>.>.>.>.>.>.>.>.>.>.>.>.>.>.>.",
">.>.>.>.>.>.>.>.>.>.>.>.>.>.>.>.>.>.>.>.>.a u w 3 ; $ = ; ; ; ; ; ; ; ; ; ; ; 3 w u a >.>.>.>.>.>.>.>.>.>.>.>.>.>.>.>.>.>.>.>.>.",
">.>.>.>.>.>.>.>.>.>.>.>.>.>.>.>.>.>.>.u t 6 ; $ ; ; ; ; ; ; ; ; ; ; ; ; ; ; ; ; $ ; 6 t u >.>.>.>.>.>.>.>.>.>.>.>.>.>.>.>.>.>.>.",
">.>.>.>.>.>.>.>.>.>.>.>.>.>.>.>.>.e y 6 ; ; ; ; ; ; ; ; ; ; ; ; ; ; ; ; ; ; ; ; ; ; ; ; 6 y e >.>.>.>.>.>.>.>.>.>.>.>.>.>.>.>.>.",
">.>.>.>.>.>.>.>.>.>.>.>.>.>.>.>.e w ; ; ; ; ; ; ; ; ; ; ; ; ; ; ; ; ; ; ; ; ; ; ; ; ; ; ; ; w e >.>.>.>.>.>.>.>.>.>.>.>.>.>.>.>.",
">.>.>.>.>.>.>.>.>.>.>.>.>.>.>.r 6 ; ; ; ; ; ; ; ; ; ; ; ; ; ; ; ; ; ; ; ; ; ; ; ; ; ; ; ; ; ; 6 r >.>.>.>.>.>.>.>.>.>.>.>.>.>.>.",
">.>.>.>.>.>.>.>.>.>.>.>.>.>.q 3 ; ; ; ; ; ; ; ; ; ; ; ; ; ; ; ; ; ; ; ; ; ; ; ; ; ; ; ; ; ; ; ; 3 q >.>.>.>.>.>.>.>.>.>.>.>.>.>.",
">.>.>.>.>.>.>.>.>.>.>.>.>.q , ; ; ; ; ; ; ; ; ; ; ; ; ; ; ; ; ; ; ; ; ; ; ; ; ; ; ; ; ; ; ; ; ; ; , q >.>.>.>.>.>.>.>.>.>.>.>.>.",
">.>.>.>.>.>.>.>.>.>.>.>.9 3 ; ; ; ; ; ; ; ; ; ; ; ; ; ; ; ; ; ; ; ; ; ; ; ; ; ; ; ; ; ; ; ; ; ; ; ; , 9 >.>.>.>.>.>.>.>.>.>.>.>.",
">.>.>.>.>.>.>.>.>.>.>.5 3 ; ; ; ; ; ; ; ; ; ; ; ; ; ; ; ; ; ; ; ; ; ; ; ; ; ; ; ; ; ; , ; ; ; ; ; ; : 3 8 >.>.>.>.>.>.>.>.>.>.>.",
">.>.>.>.>.>.>.>.>.>.4 6 ; ; ; ; ; ; ; ; ; ; ; ; ; ; ; ; ; ; ; ; ; ; ; ; ; ; ; ; ; ; ; ; ; ; ; ; ; ; ; ; 6 4 >.>.>.>.>.>.>.>.>.>.",
">.>.>.>.>.>.>.>.>.>.6 ; ; ; ; ; ; ; ; ; ; ; ; ; ; ; ; ; ; ; ; ; ; ; ; ; ; ; ; , ; ; ; ; ; ; ; ; ; ; ; ; ; 6 >.>.>.>.>.>.>.>.>.>.",
">.>.>.>.>.>.>.>.>.2 3 ; ; ; ; ; ; ; ; ; ; ; ; ; ; ; ; ; ; ; ; ; ; ; ; ; ; ; ; ; ; ; ; ; ; ; ; ; ; ; ; ; ; 3 < >.>.>.>.>.>.>.>.>.",
">.>.>.>.>.>.>.>.& 6 ; ; ; ; ; ; ; ; ; ; ; ; ; ; ; ; ; ; ; ; ; ; ; ; ; ; ; ; ; ; ; ; ; ; ; ; ; ; ; ; ; ; ; ; 6 & >.>.>.>.>.>.>.>.",
">.>.>.>.>.>.>.>.< : ; ; ; ; ; ; ; ; ; ; ; ; ; ; $ $ $ $ ; ; ; ; ; ; ; ; ; ; ; ; ; ; ; ; ; ; $ $ $ $ ; ; ; ; ; < >.>.>.>.>.>.>.>.",
">.>.>.>.>.>.>.>.3 ; ; ; ; ; ; ; ; ; ; ; ; ; $ ; e g j s 9 $ $ ; ; ; ; ; ; ; ; ; ; ; ; = $ 5 i j h u ; $ ; ; ; 3 >.>.>.>.>.>.>.>.",
">.>.>.>.>.>.>.* 3 ; ; ; ; ; ; ; ; ; ; ; ; $ f } ;.:.:.:.%.T 8 $ ; ; ; ; ; ; ; ; ; ; ; 1 U $.:.:.:.:. .k ; ; ; > * >.>.>.>.>.>.>.",
">.>.>.>.>.>.>.< : ; ; ; ; ; ; ; ; ; ; ; = I :.:.:.:.:.:.:.:...y $ ; ; ; ; ; ; ; ; $ 8 | :.:.:.:.:.:.:.:.R ; ; : < >.>.>.>.>.>.>.",
">.>.>.>.>.>.>.: ; ; ; ; ; ; ; ; ; ; ; $ z :.:.:.:.:.:.:.:.:.:.$.8 ; ; ; ; ; ; ; ; 1 | :.:.:.:.:.:.:.:.:.:.Y $ ; : >.>.>.>.>.>.>.",
">.>.>.>.>.>.@ 3 ; ; ; , ; ; ; ; ; ; ; 8 %.:.:.:.:.:.:.@./ ^ o.:.R $ ; ; ; ; ; ; $ L :.:.:.:.:.:.:.] ~ _ *.:.u = 3 % >.>.>.>.>.>.",
">.>.>.>.>.>.& > ; ; ; ; ; ; ; ; ; ; $ F :.:.:.:.:.:.] M c c m ( ;.8 $ ; ; ; ; ; , ..:.:.:.:.:.;.G v c c C &.E $ : & >.>.>.>.>.>.",
">.>.>.>.>.>.* : ; ; ; ; ; ; ; ; ; ; $ ! :.:.:.:.:.-.V v n n b M #.g $ ; ; ; ; $ r ;.:.:.:.:.:.` c b m b v H ..1 : * >.>.>.>.>.>.",
">.>.>.>.>.>.* : ; ; ; ; ; ; ; ; ; ; ; | :.:.:.:.:.o.b b n n b v [ x $ ; ; ; ; $ i :.:.:.:.:.:.J c n b m v C $.5 > & >.>.>.>.>.>.",
">.>.>.>.>.>.- : ; ; ; ; ; ; ; ; ; ; = } :.:.:.:.:.&.m b n n n v O.l $ ; ; ; , $ u :.:.:.:.:.:.~ c n m b v A $.2 : $ >.>.>.>.>.>.",
">.>.>.>.>.>.- ; ; ; ; ; ; ; ; ; ; ; $ T :.:.:.:.:.:.G c b v c S :.u $ ; ; ; ; ; 8 %.:.:.:.:.:.@.N c b v v ' | $ : - >.>.>.>.>.>.",
">.>.>.>.>.>.- : ; ; ; ; ; ; ; ; ; ; $ s :.:.:.:.:.:.-.K B B G &. ., ; ; ; ; ; ; $ Q :.:.:.:.:.:.X.S N C ) :.z $ ; - >.>.>.>.>.>.",
">.>.>.>.>.>.- : ; ; ; ; ; ; ; ; ; ; ; ; ! :.:.:.:.:.:.:.-.-.:.:.h $ ; ; ; ; ; ; $ y ;.:.:.:.:.:.:.:.*.;.:...1 ; : - >.>.>.>.>.>.",
">.>.>.>.>.>.- : ; ; ; ; ; ; ; ; ; ; ; $ 8 ..:.:.:.:.:.:.:.:.:.Y $ ; ; ; ; ; ; ; ; $ z :.:.:.:.:.:.:.:.:.%.u $ ; : - >.>.>.>.>.>.",
">.>.>.>.>.>.- : ; ; ; ; ; ; ; ; ; ; ; ; = 8 ! :.:.:.:.:.:.=.P ; ; ; ; ; ; ; ; ; ; ; $ j $.:.:.:.:.:.:.| u $ ; ; ; - >.>.>.>.>.>.",
">.>.>.>.>.>.- ; ; ; ; ; ; ; ; ; ; ; ; ; ; $ ; d R |  .{ I q $ ; ; ; ; ; ; ; ; ; ; , ; $ 7 F !  . .W j , $ ; ; ; : - >.>.>.>.>.>.",
">.>.>.>.>.>.- : ; ; ; ; ; ; ; ; ; ; ; ; ; ; ; $ $ ; ; ; $ $ ; ; ; ; ; ; ; ; ; ; ; ; ; ; ; $ $ ; ; $ $ ; ; ; ; ; : - >.>.>.>.>.>.",
">.>.>.>.>.>.- : ; ; ; ; ; ; ; ; ; ; ; ; ; ; ; ; ; ; ; ; ; ; ; ; ; ; ; ; ; ; ; ; ; ; ; ; ; ; ; ; ; ; ; ; ; ; ; ; ; - >.>.>.>.>.>.",
">.>.>.>.>.>.- ; ; ; ; ; ; ; ; ; ; ; ; ; ; ; ; ; ; ; ; ; , ; ; ; ; ; ; ; , ; ; ; ; ; ; ; ; ; ; ; ; ; ; ; ; ; ; ; : - >.>.>.>.>.>.",
">.>.>.>.>.>.- : ; ; ; ; ; ; ; ; ; ; ; ; ; ; ; ; ; ; ; ; ; ; ; ; ; ; ; ; ; ; ; ; ; ; ; ; ; ; ; ; ; ; ; ; ; ; ; ; : - >.>.>.>.>.>.",
">.>.>.>.>.>.- ; ; ; ; ; ; ; ; ; ; ; ; ; ; ; ; ; ; ; ; ; ; ; ; ; ; ; ; ; ; ; ; ; ; ; ; ; ; ; ; ; ; ; ; ; ; ; ; ; : * >.>.>.>.>.>.",
">.>.>.>.>.>.- ; ; ; ; ; ; ; ; ; ; ; ; ; ; ; ; ; ; ; ; ; ; ; ; ; ; ; ; ; ; ; ; ; ; ; ; ; ; ; ; ; ; ; ; ; ; ; ; ; : - >.>.>.>.>.>.",
">.>.>.>.>.>.- : ; ; ; 1 ; ; ; ; ; ; ; ; ; ; ; ; ; ; ; ; ; ; ; ; ; ; ; ; ; ; ; ; ; ; , ; ; ; ; ; ; ; ; ; ; ; ; ; : - >.>.>.>.>.>.",
">.>.>.>.>.>.* : ; ; ; ; ; ; ; ; ; ; ; ; ; ; ; ; ; ; ; ; ; ; ; ; ; ; ; ; ; ; ; ; ; ; ; ; ; ; ; ; ; ; ; ; ; ; ; ; : - >.>.>.>.>.>.",
">.>.>.>.>.>.- : ; ; ; ; ; ; ; ; ; ; ; ; ; ; ; ; ; ; ; ; ; ; ; ; ; ; ; ; ; ; ; ; ; ; ; ; , ; ; ; ; ; ; ; ; ; ; ; ; - >.>.>.>.>.>.",
">.>.>.>.>.>.- : ; ; ; ; ; ; ; ; ; ; ; ; ; ; 1 ; ; ; ; ; ; ; ; ; ; ; ; ; ; ; ; ; ; ; ; ; ; ; ; ; ; ; ; ; ; ; ; ; : - >.>.>.>.>.>.",
">.>.>.>.>.>.- : ; ; ; ; ; ; ; ; ; ; ; ; ; ; ; ; ; ; ; ; ; ; ; ; ; ; ; ; ; ; ; ; ; ; ; ; ; ; ; ; ; ; ; ; ; ; ; ; : - >.>.>.>.>.>.",
">.>.>.>.>.>.- ; ; ; ; ; ; ; ; ; ; ; ; ; ; ; ; ; ; , ; ; ; ; ; ; ; , ; ; ; ; ; ; ; ; ; ; ; ; ; ; ; ; ; ; ; ; ; ; ; - >.>.>.>.>.>.",
">.>.>.>.>.>.- : ; ; ; ; ; ; ; ; ; ; ; ; ; ; ; ; ; ; ; ; ; ; ; ; ; ; ; ; ; ; ; ; ; ; ; ; ; ; ; ; ; ; ; ; ; ; ; ; : - >.>.>.>.>.>.",
">.>.>.>.>.>.- : ; ; ; ; ; ; ; ; ; ; ; ; ; ; ; ; ; ; ; ; ; ; ; ; ; ; ; ; ; ; ; ; ; ; ; ; ; ; ; ; ; ; ; ; ; ; ; ; : - >.>.>.>.>.>.",
">.>.>.>.>.>.- : ; ; ; ; ; ; ; ; ; ; ; ; ; ; ; ; ; ; ; ; ; ; ; ; ; ; , ; ; ; ; ; ; ; ; ; ; ; ; ; ; ; ; ; ; ; ; ; : - >.>.>.>.>.>.",
">.>.>.>.>.>.- : ; ; ; ; ; ; ; ; ; ; ; ; ; ; ; ; ; ; ; ; ; ; ; ; ; ; ; ; ; ; ; ; ; ; ; ; ; ; ; ; ; ; ; ; ; ; ; ; : - >.>.>.>.>.>.",
">.>.>.>.>.>.- : ; ; ; ; ; ; ; ; ; ; ; ; ; ; ; ; ; ; ; ; ; ; ; ; ; ; ; ; ; ; ; ; ; ; ; ; ; ; ; ; , ; ; ; ; ; ; ; ; - >.>.>.>.>.>.",
">.>.>.>.>.>.- ; ; ; ; ; ; ; ; ; ; ; ; ; ; ; ; ; ; ; ; ; ; ; ; ; ; ; ; ; ; ; ; ; ; ; ; ; ; ; ; ; ; ; ; ; ; ; ; ; : - >.>.>.>.>.>.",
">.>.>.>.>.>.- : ; ; ; ; ; ; ; ; ; ; ; ; ; ; ; ; ; ; ; ; ; ; ; ; ; ; ; ; ; ; ; ; ; ; ; ; ; ; ; ; ; ; ; ; ; ; ; ; : - >.>.>.>.>.>.",
">.>.>.>.>.>.- ; ; ; ; ; ; ; ; ; : : ; ; ; ; ; ; ; ; ; ; , ; ; ; : : ; ; ; ; ; ; ; ; ; ; ; ; ; : : ; ; ; ; ; ; ; ; - >.>.>.>.>.>.",
">.>.>.>.>.>.- : ; ; ; ; ; ; : & O # : ; ; ; ; ; ; ; ; ; ; ; * % @ & : ; ; ; ; ; ; ; ; ; ; ; : @ % & : ; ; ; ; ; : - >.>.>.>.>.>.",
">.>.>.>.>.>.* : ; ; ; ; ; ; o >.>.>.o ; : ; ; ; ; ; ; ; : % >.>.>.>.% : ; ; ; ; ; ; ; ; : ; X >.>.>.@ : ; ; ; ; : * >.>.>.>.>.>.",
">.>.>.>.>.>.* : ; ; ; ; ; . >.>.>.>.>.o : ; ; ; ; ; ; : @ >.>.>.>.>.>.+ : ; ; ; ; ; ; ; : o >.>.>.>.>.@ : ; ; ; : * >.>.>.>.>.>.",
">.>.>.>.>.>.& : ; ; ; ; . >.>.>.>.>.>.>.# : ; ; ; ; : - >.>.>.>.>.>.>.>.# : ; ; ; ; ; : @ >.>.>.>.>.>.>.& : ; ; : & >.>.>.>.>.>.",
">.>.>.>.>.>.@ : ; : ; X >.>.>.>.>.>.>.>.>.* : : ; ; ; . >.>.>.>.>.>.>.>.>.& : ; ; ; : & >.>.>.>.>.>.>.>.>.& : ; : & >.>.>.>.>.>.",
">.>.>.>.>.>.>.: : : X >.>.>.>.>.>.>.>.>.>.>.- : : : O >.>.>.>.>.>.>.>.>.>.. - : : : & >.>.>.>.>.>.>.>.>.>.>.- : > O >.>.>.>.>.>.",
">.>.>.>.>.>.>.X & . >.>.>.>.>.>.>.>.>.>.>.>.>.O # X >.>.>.>.>.>.>.>.>.>.>.>.>.O @ o >.>.>.>.>.>.>.>.>.>.>.>.>.@ O >.>.>.>.>.>.>.",
">.>.>.>.>.>.>.>.>.>.>.>.>.>.>.>.>.>.>.>.>.>.>.>.>.>.>.>.>.>.>.>.>.>.>.>.>.>.>.>.>.>.>.>.>.>.>.>.>.>.>.>.>.>.>.>.>.>.>.>.>.>.>.>.",
">.>.>.>.>.>.>.>.>.>.>.>.>.>.>.>.>.>.>.>.>.>.>.>.>.>.>.>.>.>.>.>.>.>.>.>.>.>.>.>.>.>.>.>.>.>.>.>.>.>.>.>.>.>.>.>.>.>.>.>.>.>.>.>.",
">.>.>.>.>.>.>.>.>.>.>.>.>.>.>.>.>.>.>.>.>.>.>.>.>.>.>.>.>.>.>.>.>.>.>.>.>.>.>.>.>.>.>.>.>.>.>.>.>.>.>.>.>.>.>.>.>.>.>.>.>.>.>.>."
};
