/* XPM */
static char *result[] = {
/* columns rows colors chars-per-pixel */
"64 64 63 1 ",
"  c #00B835",
". c #00BB3C",
"X c #01BD43",
"o c #06C049",
"O c #0BC14D",
"+ c #11C34F",
"@ c #0EC250",
"# c #14C454",
"$ c #1AC455",
"% c #17C659",
"& c #1CC65A",
"* c #22C75C",
"= c #21C85E",
"- c #2FC85F",
"; c #25C961",
": c #2BCA64",
"> c #2ECB69",
", c #32CB65",
"< c #34CD6B",
"1 c #39CD6C",
"2 c #3CCE71",
"3 c #3ED072",
"4 c #41CE6F",
"5 c #42CF72",
"6 c #43D176",
"7 c #4BD277",
"8 c #47D279",
"9 c #4CD37C",
"0 c #52D47E",
"q c #55D582",
"w c #5BD786",
"e c #5CD887",
"r c #5ED788",
"t c #5ED889",
"y c #60D887",
"u c #61D789",
"i c #64D98C",
"p c #69DA8E",
"a c #6CDB92",
"s c #72DD96",
"d c #76DE99",
"f c #7ADF9B",
"g c #7CE09D",
"h c #7FDFA0",
"j c #7EE0A0",
"k c #81E19F",
"l c #80DFA0",
"z c #84E2A2",
"x c #89E3A6",
"c c #8DE4A9",
"v c #93E5AD",
"b c #96E7B0",
"n c #99E7B1",
"m c #9CE8B4",
"M c #A0E9B6",
"N c #A4EAB8",
"B c #A9ECBD",
"V c #ACECC0",
"C c #B2EEC3",
"Z c #B7F0C6",
"A c #B8F1C7",
"S c #BBF0C8",
"D c None",
/* pixels */
"DDDDDDDDDDDDDDDDDDDDDDDDDDDDDDDDDDDDDDDDDDDDDDDDDDDDDDDDDDDDDDDD",
"DDDDDDDDDDDDDDDDDDDDDDDDDDDDDDDDDDDDDDDDDDDDDDDDDDDDDDDDDDDDDDDD",
"DDDDDDDDDDDDDDDDDDDDDDDDDDDDDDDDDDDDDDDDDDDDDDDDDDDDDDDDDDDDDDDD",
"DDDDDDDDDDDDDDDDDDDDDDDDDDDDDDDDDDDDDDDDDDDDDDDDDDDDDDDDDDDDDDDD",
"DDDDDDDDDDDDDDDDDDDDDDDDDDDDgggaasgfDDDDDDDDDDDDDDDDDDDDDDDDDDDD",
"DDDDDDDDDDDDDDDDDDDDDDDwdfsuD;&pa6*DtdxzDDDDDDDDDDDDDDDDDDDDDDDD",
"DDDDDDDDDDDDDDDDDDDDDksq0ODDDD9BzaDDDDD&tdkDDDDDDDDDDDDDDDDDDDDD",
"DDDDDDDDDDDDDDDDDDDcf,1dSaDDDD6cugDDDDD.z2-fcDDDDDDDDDDDDDDDDDDD",
"DDDDDDDDDDDDDDDDDfkDDD:zwzXDDD&31>#DDD,Mv3DDDzkDDDDDDDDDDDDDDDDD",
"DDDDDDDDDDDDDDDDfqDDDD.fzfqgzswzxqazkpisXDDDDD1gDDDDDDDDDDDDDDDD",
"DDDDDDDDDDDDDDudam6DDD*psw5DDD@ut#DDD8iapDDDD8audpDDDDDDDDDDDDDD",
"DDDDDDDDDDDDDddDq&c0Dfz6DDDDDDi>&aDDDDDDDzkDOZq6DsfDDDDDDDDDDDDD",
"DDDDDDDDDDDDdsDDDD9cfDDDDDDDDDsDDs3DDDDDDDDk0caDDDagDDDDDDDDDDDD",
"DDDDDDDDDDDiuDDDDDswDDDDDDDDDzDDDDzDDDDDDDDDwgiDDDDwiDDDDDDDDDDD",
"DDDDDDDDDD9i9@DDDcDDDDDDDDDDqaDDDDptDDDDDDDDD,fDDDD8d9DDDDDDDDDD",
"DDDDDDDDDDaqzg,,cDDDDDDDDDDDzDDDDDDxDDDDDDDDDDDx1+uzdaDDDDDDDDDD",
"DDDDDDDDDj=w#:ggDDDDDDDDDDDaqDDDDDDqsDDDDDDDDDDDgqsgS>fDDDDDDDDD",
"DDDDDDDDwiDDDOdDDDDDDDDDDDDzDDDDDDDDjDDDDDDDDDDDDatb9XquDDDDDDDD",
"DDDDDDDDgDDDDa8DDDDDDDDDDDfDDDDDDDDDDjDDDDDDDDDDD<uOXDDzDDDDDDDD",
"DDDDDDDi7XDD6eDDDDDDDDDDDDgDDDDDDDDDDsDDDDDDDDDDDD06DDD6sDDDDDDD",
"DDDDDDDag3i9vwDDDDDDDDDDDzDDDDDDDDDDDDzDDDDDDDDDDD9mODD dDDDDDDD",
"DDDDDDw8umcaqcsDDDDDDDDDqaDDDDDDDDDDDDiiDDDDDDDDDaciqgtguwDDDDDD",
"DDDDDDg#.igiXq2pzDDDDDDDzDDDDDDDDDDDDDDzDDDDDDDgs1totavs:gDDDDDD",
"DDDDDDgDDD<q.&a.<xkDDDDawDDDDDDDDDDDDDD9sDDDDDc5.p;.6uj DaDDDDDD",
"DDDDDuwDDDd&DDw9DDDvDDDgDDDDDDDDDDDDDDDDd;DDvpDD2aDD#sODD9aDDDDD",
"DDDDDgDDDDjDDDDzDDDDasf:DDDDDDDDDDDDDDDD=gssDDDDjDDDDdDDDDgDDDDD",
"DDDDDgDDD8iDDDDqaDDDD6niDDDDDDDDDDDDDDDDubqDDDDttDDDDi9DD;gDDDDD",
"DDDDDscwgi8DDDDDjDDDDd&5xDDDDDDDDDDDDDDx8@sDDDDzDDDDDDaDDggDDDDD",
"DDDDDi9kbiDDDDDDDfDD9iDDDsvDDDDDDDDDDvdDDDweDDs8DDDDDDa:gcgDDDDD",
"DDDDDiDD2sDDDDDDDs<ogDDDDDDzvDDDDDDczDDDDDDj@;gDDDDDDDsbg0i9DDDD",
"DDDDDtDDDfDDDDDDDDaq9DDDDDDDDxfDDfcDDDDDDDD3ep:DDDDDDDg@DD9yDDDD",
"DDDDDiDDDzDDDDDDDDwcDDDDDDDDDD7bb9DDDDDDDDDDjaDDDDDDDDgDDDqDDDDD",
"DDDDDtDDDkDDDDDDDDizDDDDDDDDDDfyyfDDDDDDDDDDjaDDDDDDDDzDDDDDDDDD",
"DDDDDwD&wgDDDDDDD3u<pDDDDDDDxzDDDDzzDDDDDDDt3w8DDDDDDDfDDDwDDDDD",
"DDDDDivMzsDDDDDDDg&XfDDDDDDvDDDDDDDDvDDDDDDgX#zDDDDDDDaxaDwDDDDD",
"DDDDDic;.iDDDDDDwiDD:dDDDvDDDDDDDDDDDDvDDDs3DDqiDDDDDDwxbNdDDDDD",
"DDDDDaq&DqtDDDDDxDDDDuqddDDDDDDDDDDDDDDfd7iDDDDzDDDDD9wiO:dDDDDD",
"DDDDDgDDDDfDDDDa9DDDDaM:DDDDDDDDDDDDDDDD:MaDDDD6dDDDDs<DDDgDDDDD",
"DDDDDsDDDDgDDDDgDDDsz199DDDDDDDDDDDDDDDD7q4zDDDDdDDDDjDDDDdDDDDD",
"DDDDDDaDD:g<DDs:D0caDDDhDDDDDDDDDDDDDDDDlDDDdcDD=fDD<aDDDiDDDDDD",
"DDDDDDgD*tvw.,t*dfDDDDD9sDDDDDDDDDDDDDDaqDDDDDzd$q6 t3<DDgDDDDDD",
"DDDDDDa<ncMf#sidDDDDDDDDjDDDDDDDDDDDDDDzDDDDDDDDgqa#taMt;sDDDDDD",
"DDDDDD2iXX@<xx3DDDDDDDDDDzDDDDDDDDDDDDjDDDDDDDDDD8cx9zuva3DDDDDD",
"DDDDDDDg&DDDg;DDDDDDDDDDDsDDDDDDDDDDDDgDDDDDDDDDDD:gO<X9dDDDDDDD",
"DDDDDDD8aDDD@aDDDDDDDDDDDDzDDDDDDDDDDzDDDDDDDDDDDDd=DDXq8DDDDDDD",
"DDDDDDDDj:DXtguDDDDDDDDDDDiiDDDDDDDDuiDDDDDDDDDDDp9DDD;fDDDDDDDD",
"DDDDDDDDDdXbnagwDDDDDDDDDDDzDDDDDDDDzDDDDDDDDDDDqz#DDDgDDDDDDDDD",
"DDDDDDDDDe9zzg0puDDDDDDDDDD7dDDDDDDs0DDDDDDDDDDts9z5j9iDDDDDDDDD",
"DDDDDDDDDDa6x,.DgpDDDDDDDDDDzDDDDDDzDDDDDDDDDDpzDD<v8sDDDDDDDDDD",
"DDDDDDDDDDDd&DDDDasDDDDDDDDDDzDDDDgDDDDDDDDDDfsDDDD#dDDDDDDDDDDD",
"DDDDDDDDDDDDzDDDDingDDDDDDDDDa9DD7dDDDDDDDDDzwDDDDDzDDDDDDDDDDDD",
"DDDDDDDDDDDDDcDDD&C3azDDDDDDDDjDDjDDDDDDDDzssxDDDDcDDDDDDDDDDDDD",
"DDDDDDDDDDDDDDc<iBM;DDkxDDDDDD9669DDDDDDdfDDDqag6zDDDDDDDDDDDDDD",
"DDDDDDDDDDDDDDDgw&XDDDD&wzfsD:$gg#:DafdgfXDDDDqifDDDDDDDDDDDDDDD",
"DDDDDDDDDDDDDDDDud,DDDD<Nz$9iptiiwii7$dax;DDDDsiDDDDDDDDDDDDDDDD",
"DDDDDDDDDDDDDDDDDDxgDD,B0#DDDD&si6DDDDuAxaDDfxDDDDDDDDDDDDDDDDDD",
"DDDDDDDDDDDDDDDDDDDDxd10oDDDDDijczDDDD;zd0pzDDDDDDDDDDDDDDDDDDDD",
"DDDDDDDDDDDDDDDDDDDDDDssuDDDDD6bbqDDDD<7ii5DDDDDDDDDDDDDDDDDDDDD",
"DDDDDDDDDDDDDDDDDDDDDDDDDgxxji9999igzza8DDDDDDDDDDDDDDDDDDDDDDDD",
"DDDDDDDDDDDDDDDDDDDDDDDDDDDDDD8636DDDDDDDDDDDDDDDDDDDDDDDDDDDDDD",
"DDDDDDDDDDDDDDDDDDDDDDDDDDDDDDDDDDDDDDDDDDDDDDDDDDDDDDDDDDDDDDDD",
"DDDDDDDDDDDDDDDDDDDDDDDDDDDDDDDDDDDDDDDDDDDDDDDDDDDDDDDDDDDDDDDD",
"DDDDDDDDDDDDDDDDDDDDDDDDDDDDDDDDDDDDDDDDDDDDDDDDDDDDDDDDDDDDDDDD",
"DDDDDDDDDDDDDDDDDDDDDDDDDDDDDDDDDDDDDDDDDDDDDDDDDDDDDDDDDDDDDDDD"
};
