/* XPM */
static char *result[] = {
/* columns rows colors chars-per-pixel */
"64 64 14 1 ",
"  c #201720",
". c #222034",
"X c #663931",
"o c #4B692F",
"O c #3F3F74",
"+ c #696A6A",
"@ c #8A6F30",
"# c #DF7126",
"$ c #FBF236",
"% c #99E550",
"& c #306082",
"* c #5FCDE4",
"= c #CBDBFC",
"- c white",
/* pixels */
"            OO. X     -------------@------------                ",
"       OO.  O.. X     -#########$$$@-$$$$$$$$$$$                ",
" OO.   O..  ... X   ----X#######$$$@-$$$$$$$$$$$----@   ----@   ",
"OO..   ...OOOO.OX----###XXXXXXXX@@@@@@@@@@@@@@@@-$$$@   -$$$@-- ",
"O...OOOO.O..O..O####-###X######X---@@--$---------$$$@..--$----@-",
"..O.O.O.OO.O...O####-###X######X$$$@@$-$-$$$$$$$-$$$@----$-$$$@$",
"...OO...O.......####-###X######X$$$@@--$-$$$$$$$@@@@@---@@-$$$@$",
"OO.O..O.........####-###XXXXXXXX$$$@@$@@-$$$$$$$$$$@-$$$@$-$$$@$",
"O...........OO..####-###X#######@@@@$$$$@@@@@@@@--@@-$$$@$@@@@@-",
"O..OO......OO..O####-###X#######-$$$$$$$$$@@@@@@---@-$$$@----@--",
"OO.O.......O...O####-###X#######-@--------------$$$@@@@@@-$$$@--",
"O......OO..OO.O.####-###X#######$@-$$$$$$$$$$$$$$$$@$$$@--$$$@--",
".......OO..O..O.-----#---X-X---X$@-$$$$$$$$$$$$$$$$@@$----$$$@$-",
".......O........##--XX-##X#X-##X$@-$$$$$$$$$$$$$@@@@@@-$-@@@@@$@",
"................---X##-##X#X-##X--------------@-$@@$@$-$--$$$@$$",
"O.....OO...OO..O----X#-##X#XXXXX$$$$$$$$$$$$$$@-@@@$@$-$--$$$@@@",
"......O....OOO.O-###XX-##X------$$$$$$$$$$$$$$@----@@$@@-@@@@@@-",
".......OO...O...-###X#-##X######$$$$$$$$$$$$$$@-$$$@@@@-@@@@@$$-",
".OO....O...O....-###X--##X######@@@@@@@@@@@@@@@@$$$@@  -----@@@-",
".O.... ...OOOO..-###X#-##XXXXXXX@@@@@@@@@@@@@@@@$$$@@  @-$$$@---",
"O.....OO.O..O..O-###X#-##X#####----@@--$--------@@@@@..--$----@@",
"..O.O.O.OO.O...O-###X#-##X#####X$$$@@$-$-$$$$$$$-$$$@----$-$$$@$",
"...OO...O.......-###X#-##X#####X$$$@@--$-$$$$$$$@@@@@---@@-$$$@$",
"OO.O..O.........-###X#-##XXXXXXX$$$@@$@@-$$$$$$$$$$@-$$$@$-$$$@$",
"O...........OO..-###X#-##X######@@@@$$$$@@@@@@@@--@@-$$$@$@@@@@-",
"O..OO......OO..O-###X#-##X######-$$$$$$$$$@@@@@@---@-$$$@----@--",
"OO.O.......O...O-###X#-##X######-@--------------$$$@@@@@@-$$$@--",
"O......OO..OO.O.-###X#XXXX######$@-$$$$$$$$$$$$$$$$@$$$@--$$$@--",
".......OO..O..O.-###X#---X-X---X$@-$$$$$$$$$$$$$$$$@@$----$$$@$-",
".......O........XXXXXX-##X#X-##X$@-$$$$$$$$$$$$$@@@@@@-$-@@@@@$@",
"................---X##-##X#X-##X--------------@-$@@$@$-$--$$$@$$",
"O.....OO...OO..O----X#-##X#XXXXX$$$$$$$$$$$$$$@-@@@$@$-$--$$$@@@",
"                                                ######.        #",
"                o             --             --&#XXXXX.###..   #",
".           ====o           ---%  --&     -----&#XXXXX.X#####. #",
".========.===+++o  --o--o--o-%oo---*&--&-&-****&#XXXXX.X#XXXX.##",
"=.=====.==.==+==----%o-%o-%oooo-&*&&&**&--&&&&&&#XXXXX.##XXXX.XX",
"===++++.++.=====%%%ooooooooo-%%%--&&***&-*----&&#XXXXX.X#XXXX.XX",
"++=++++.++.+++++-o%%%oo--o--o-o---&&***&-*-***&-#XXXXX.X#XXXX.XX",
"++=++++.++.+++++oo%%%o%-%o-%o%---*&&&&&&&&-***&-#XXXXX.X#XXXX.XX",
"..=++++.++......oo%%--o-%o--oo-%-----&***&&&&&&&#XXXXX.X......XX",
"..=++++.++.=====o%%%-%o-%o-%o%oo-****&***&&&&&&-############....",
"..=++++.++.+++++%%%%ooo-%o-%o%%%&&&&&&***&**-**&#XXXXXXXXXXX.###",
"..=++++.++.+++++-o%%%o%-%o-%o%%-*&&&&&-&*&**-***#XXXXXXXXXXX.XXX",
"===++++.========%o%%%o%-%o-%o-o-*-**--&&*&**-***.............XXX",
"++=++++.=+++++++oo%%%o%-%o-%o%oo*&&&-*&------&-&XX.##XXX#XXXXXXX",
"=.=++++.=+=.++++oo--oo%-%o-%o%o-***&-*&*-****&*&XX#####.#XXXXXXX",
"..=++++.=+..++++--o%oo%-%o-%o%o%***&&&&*&&&&&&&&XX#XXXX.#XXXXXXX",
"++......=+++++++-%oooo%-%o-%o%oo&&&&&&&&-***&*&&..#XXXX.........",
"+++.++++=+++++++-%ooooo-%o-%o%o-******&&&&&&&*&&#X#XXXX.XXXX..X#",
"+++.....=+++++++-%o    -%o-%o%o%**--&*****-----&#X......XXXX..X#",
"=.+.=====+=.++++-%o--o--%o-%o%oo---*&--&**-****&#XXXXX.XXXXX..##",
"..=====.=+..++++-%o-%o--%o-%o%o-&*&&&**&--&&&&&&#XXXXX.XXXXX..XX",
"++=++++.=+++++++-%ooooo-%o-%o%o%--&&***&-*----&&#XXXXX........XX",
"..=++++.........-%o%%oo-%o-%o%o---&&***&-*-***&-#XXXXX.X#XXXX.XX",
"++=++++.++.+++++-%o%%o%-%o-%o%o--*&&&&&&&&-***&-#XXXXX.X#XXXX.XX",
"..=++++.++......-%o%--o-%o-%o%o%-----&***&&&&&&&#XXXXX.X......XX",
"..=++++.++.=====-%o%-%o-%o-%o%oo-****&***&&&&&&-############....",
"..=++++.++.+++++-%o%ooo-%o-%o%o%&&&&&&***&**-**&#XXXXXXXXXXX.###",
"..=++++.++.+++++-%o%%o%-%o-%o%o-*&&&&&-&*&**-***#XXXXXXXXXXX.XXX",
"===++++.========-%o%%o%-%o-%o%o-*-**--&&*&**-***.............XXX",
"++=++++.=+++++++-%o%%o%-%o-%o%oo*&&&-*&------&-&XX.##XXX#XXXXXXX",
"=.=++++.=+=.++++-%o-oo%-%o-%o%o-***&-*&*-****&*&XX#####.#XXXXXXX",
"..=++++.=+..++++--o%oo%-%o-%o%o%***&&&&*&&&&&&&&XX#XXXX.#XXXXXXX"
};
