/* XPM */
static char *result[] = {
/* columns rows colors chars-per-pixel */
"64 64 14 1 ",
"  c black",
". c #201720",
"X c #222034",
"o c #45283C",
"O c #3F3F74",
"+ c #AC3232",
"@ c #8A6F30",
"# c #FBF236",
"$ c #306082",
"% c #76428A",
"& c #D77BBA",
"* c #639BFF",
"= c #5FCDE4",
"- c white",
/* pixels */
"............--@.&&&&&&&&&&o.....................................",
"............---@&%%%%%%%%%o.....====X..=========......----$.....",
"..------@...--#@&%&o%%%&o%o.....$$$$X===$$$$$$$$......-===$.....",
"---#####@--@--#@&&&&&&&oo%o&&&&&$=X$X===$=X$$$$$---------$$-----",
"##-#####@##@--#@&&&&&&&o%%o&o&&&$XX=====XXX$$$$$=========$$===--",
"##-#####@##@--#@%%%%%%%oo%o%o&%%$$$=$$$$X$$$$$$$=========$-$==--",
"##-####------@#@o%%%&o%oo%o&&&%&$=X=$$$$X=X$$$$$=========$=$$---",
"##-####-#####@#@o%%%oo%o%%o%%&%o$XX=$$$$XXX$$$$$=========$=$----",
"##@@@@@-#####@#@%%%%%%%oooo%%&%%$$$=$$$$X$$$$$$$=========$=$===-",
"###--@#-#####@#@%%%%%%%oo%o%&&%%XXX======XXXXXXX$$$$$$$$$$=$-$=$",
"##--#@#-#####@#@%%%%%%%o&&o%&&%%$$$=$$$$$X$$=$XX$$=$-======$$$==",
"##--#@#-#####@#@%%%%%%%o%%o%&&%%X$==$$$$$X=========$-======$====",
"##--@@-@@@@@@@#@o%%%&o%oo%o&&&%&X$======XX$$$$$$-----======$====",
"@@-#@@-#@-#@--#@o%%%oo%oo%o%%&%oX$==$$$$XX$$$=X$-===-======$-$==",
"##-#@@-#@-#@--#@%%%%%%%o%%o%&&%%X$======XX$$$XX$-===-======$$$==",
"----@@-#@-#@--#-oooooooo%%o%oooo===$$$$$X====X$=-===$$$$$$$$====",
"####@@-#@-#@--#-&%&%%%%%%%o%%%%%$$=$$$$$X$$$$X$=--$==$=$-=$$$$$-",
"####@@-#@-#@--#-&%&%%%%%%%o%%%%%===$$$$$X=========$==$=$--$====-",
"##------@-#@--#-&%&%&o%&o%o%%%%%$$=$$$$$X$$$$$$$==$$$$=$==$$$$$-",
"##-#####@-#@--#-&&&&&&&oo%o%%%%&$==$$$$$X=X$$$$$---------$$-----",
"##-#####@-#@--#-&&&&&&&o%%o%&&&&$XXXXXXXXXX$$$$$=========$$===--",
"@@-#####@-#@--#@%%%%%%%oooo%o&%%$$$=$$$$X$$$$$$$=========$-$==--",
"##-####------@#@o%%%&o%oo%o%%&%&$=X=$$$$X=X$$$$$=========$=$$---",
"##-####-#####@#@o%%%oo%oo%ooo&%o$XX=$$$$XXX$$$$$=========$=$----",
"##@@@@@-#####@#@%%%%%%%oooo%%&%%$$$=$$$$X$$$$$$$=========$=$===-",
"##-#@@--#####@#@%%%%%%%oo%o%&&%%XXX======XXXXXXX$$$$$$$$$$=$-$=$",
"##-#@@--#####@#@%%%%%%%o&&o%&&%%$XX=$$$$$XXX$XX=$$=$-======$$$==",
"##-#@@--#####@#@%%%%%%%o%%o%&&%%$$$=$$$$$X$$$X=====$-======$====",
"##-#@@-@@@@@@@#@o%%%&o%oo%o&&&%&XXX=====XXXXXX$X-----======$====",
"@@-#@@-#@-#@--#@o%%%oo%oo%o%%&%oX$==$$$$XX$$$=X$-===-======$-$==",
"##-#@@-#@-#@@-#@%%%%%%%o%%o%&&%%X$======XX$$$XX$-===-======$$$==",
"----@@-#@-#@--#-oooooooo%%o%oooo===$$$$$X====X$=-===$$$$$$$$====",
"......==X.......................--O......--O....----O.....------",
"=X.==X=$X......=................---O.....-*O....****O.....-*****",
"$X.=$XXXX.====X=...&&&&&o&&&&o..-O*O.....-*O--O-**--------O*****",
"XX=XXX==X.=$$$XX&&&o&o&&&&+++o.&*O*O-O----*O-*O-**-----------O**",
"===$XX=$X =$$$X=&++o+o&++&&&&&&&--OOOO----*O-*O-----*********O**",
"=XXXX======$$$X=&++o+o&++&++++++-*OOOO***-*O-*O--**-*********O*-",
"====X$=$$$XXXXX=&++o+ooo+&++++++-*OOOO--O-*O-*O--**OOOOOOOOOOO*-",
"=$$$X$=$$$X$$$$Xooooooooo&++++++-*OOOO-*O-*O-*O--*******O*OOOOO-",
"=$$$X$=$$$X$$$$$oo+ooooo&ooooooo-*OOOO-*O-*O-*O--*******O*O*O*O-",
"=$$$X$XXXXX$==X$oooooo++&&&o++oo-*OO-O-*O-*O-*O-OOOOOOOOO*O*O*O-",
"XXXXX==$X$==X$X$++++++++&++o++o+-*OO*O-*O-*O-*O-**********O*O*O-",
"$$=$X$XXX$=$XXX$++++++++ooooooo+-*OO*O-*O-*O-*O-**********O*O*O-",
"==XX====X$XXX$$$&&&o++++o&+++o&&-*OO*O-*O----*O-OOOOOOOOOOO*OOOO",
"=$X$=$$$XXXXXXX$+&+o+++&&&+++o&&-*OO*O--O--*---O**OOOOOOOOO*O-**",
"XXX$=$$$X==X$$$$o&+o&&&&&&&&&&&o-*OO---*O--*--*O*-------O------O",
"$$$==$$$X==X$$$$&ooo&++++++++++o-*O--*-*O--*--*O*--*****O-*****O",
"XXX=XXXXX=$XXXXX++&&&+&o++++&o+o-*O--*-*O--*--*O---*****O-*****O",
"=X===X=$XXXX...=++&+&+oo++++oo+o-*O--*-*O--*--*O**-*****O-*****O",
"$X==$XXXX$====X=oo&+&++++++++++o-*O--*-*O--*--*O**-*****O-*****O",
"XX=XXX==XX=$$$XX&&&o&++++++++++o-*O--*-*O--*--*O**-----------O*O",
"===$XX=$X =$$$X=&++o&++++++++++o-*O--*-*O--*--*O----*********O*O",
"=XXXX======$$$X=&++o&++++++++++o-*O--*-*O--*--*O-**-*********O*O",
"====X$=$$$XXXXX=&++o&+&o++++&o+o-*O--*-*O--*--*O-**OOOOOOOOOOO*O",
"=$$$X$=$$$X$$$$Xoooo&+oo++++oo+o-*O--*-*O--*--*O-*******OOOOOOOO",
"=$$$X$=$$$X$$$$$oo+o&++++++++++o-*O--*-*O--*--*O-*******O*O*O*O-",
"=$$$X$XXXXX$==X$oooooooooooooooo-*O--*-*O--*--*OOOOOOOOOO*O*O*O-",
"XXXXX==$X$==X$X$++++++++&++o++o+-*O--*-*O--*--*O**********O*O*O-",
"$$=$X$XXX$=$XXX$++++++++ooooooo+-*O--*-*O--*--*O**********O*O*O-",
"==XX====X$XXX$$$&&&o++++o&+++o&&-*O--*-*O--*--*OOOOOOOOOOOO*OOOO",
"=$X$=$$$XXXXXXX$+&+o+++&&&+++o&&-*O--*-*O--*--*O**OOOOOOOOO*O-**",
"XXX$=$$$X==X$$$$o&+o&&&&&&&&&&&o-*O--*-*OO-*--*O*-------O------O",
"$$$==$$$X==X$$$$&ooo&++++++++++o-*O--*-*O--*--*O*--*****O-*****O"
};
