/* XPM */
static char *result[] = {
/* columns rows colors chars-per-pixel */
"64 64 135 2 ",
"   c #000000",
".  c #050708",
"X  c #0A0D0E",
"o  c #130F0B",
"O  c #15110C",
"+  c #1B150E",
"@  c #0B0F10",
"#  c #0D1215",
"$  c #0D1519",
"%  c #10171C",
"&  c #13191D",
"*  c #211A12",
"=  c #31271B",
"-  c #161D21",
";  c #1F2324",
":  c #1A2428",
">  c #1F292F",
",  c #212B2F",
"<  c #252526",
"1  c #3B2F21",
"2  c #3F3224",
"3  c #29383F",
"4  c #383532",
"5  c #503F2D",
"6  c #483928",
"7  c #51412D",
"8  c #59462F",
"9  c #594732",
"0  c #5D4A34",
"q  c #634F37",
"w  c #2D3D45",
"e  c #2F3F48",
"r  c #333F44",
"t  c #31424B",
"y  c #364952",
"u  c #384C55",
"i  c #3A4F59",
"p  c #3E535E",
"a  c #424343",
"s  c #5A554F",
"d  c #495054",
"f  c #5A5A59",
"g  c #6B5840",
"h  c #7B6345",
"j  c #7E6649",
"k  c #405763",
"l  c #425964",
"z  c #465D69",
"x  c #635C67",
"c  c #49626F",
"v  c #5B6266",
"b  c #4C6773",
"n  c #4F6C7A",
"m  c #506C79",
"M  c #53707D",
"N  c #767676",
"B  c #71707E",
"V  c #AB1717",
"C  c #AB1718",
"Z  c #B21717",
"A  c #B11718",
"S  c #9C2A2D",
"D  c #9B2F33",
"F  c #E71E1E",
"G  c #EA1B1B",
"H  c #CA363A",
"J  c #FF2222",
"K  c #FE2A2A",
"L  c #FD3232",
"P  c #876C4C",
"I  c #896E4D",
"U  c #957753",
"Y  c #977954",
"T  c #9A7B56",
"R  c #9F7F59",
"E  c #857868",
"W  c #F97373",
"Q  c #F87878",
"!  c #A5845C",
"~  c #AB865B",
"^  c #AE895D",
"/  c #B08A5E",
"(  c #AE8B61",
")  c #B28E63",
"_  c #B59165",
"`  c #B3936C",
"'  c #B89A76",
"]  c #567382",
"[  c #5D7886",
"{  c #5D7D8D",
"}  c #7E7482",
"|  c #638596",
" . c #658799",
".. c #66899B",
"X. c #698C9E",
"o. c #6A8EA1",
"O. c #6C91A4",
"+. c #7E99A7",
"@. c #7F9AA8",
"#. c #2687FE",
"$. c #2A89FE",
"%. c #328DFD",
"&. c #3A91FC",
"*. c #4195FC",
"=. c #4698FB",
"-. c #4D9BFB",
";. c #77B1F8",
":. c #78B2F8",
">. c #BFA688",
",. c #F78787",
"<. c #F78B8B",
"1. c #C0A788",
"2. c #C4AA8B",
"3. c #F5A7A7",
"4. c #F5AAAA",
"5. c #F4B0B0",
"6. c #D1C1AD",
"7. c #D3C5B2",
"8. c #89BAF7",
"9. c #82B7F8",
"0. c #F3C4C4",
"q. c #D5DCE0",
"w. c #D9E0E4",
"e. c #EAE7E4",
"r. c #EFEEED",
"t. c #EBE9E5",
"y. c #E3E9F1",
"u. c #ECEDF0",
"i. c #EFF0F0",
"p. c #F2F2F3",
"a. c #F8F4F0",
"s. c #F2F9F7",
"d. c #F5F7FA",
"f. c #F0F8F8",
"g. c #FBFAF9",
/* pixels */
"| | | | | | | | | | | | | | | | | | | | | | | | | | | | | | | | | | | | | | | | | | | | | | | | | | | | | | | | | | | | | | | | ",
"| | | | | | | | | | | | | | | | | | |  . .| |  .|  . .| |  . .|  .| | |  .| |  .|  .| | | | | | | | | | | | | | | | | | | | | | ",
"| | | | | | | | | | | | | | | | | | | { { { { { { { { { { { { { { { { { { { { { { { | | | | | | | | | | | | | | | | | | | | | | ",
"| | | | | | | | | | | | | | | | | ..m @ X @ X @ @ @ X @ X @ X X X # X X @ @ @ @ @ X t  .| | | | | | | | | | | | | | | | | | | | ",
"| | | | | | | | | | | | | | | |  .o.m                                               e O...| | | | | | | | | | | | | | | | | | | ",
"| | | | | | | | | | | | | | | | b l y                                               > z l {  .| | | | | | | | | | | | | | | | | ",
"| | | | | | | | | | | | | | | | &                                                         n ..| | | | | | | | | | | | | | | | | ",
"| | | | | | | | | | | | | | | | -                                                         m  .| | | | | | | | | | | | | | | | | ",
"| | | | | | | | | | | | | | | | -                                                         m ..| | | | | | | | | | | | | | | | | ",
"| | | | | | | | | | | | | | |  .-                                                         m ..| | | | | | | | | | | | | | | | | ",
"| | | | | | | | | | | | | | | | -                                                         m  .| | | | | | | | | | | | | | | | | ",
"| | | | | | | | | | | | | | |  .-                                                         n ..| | | | | | | | | | | | | | | | | ",
"| | | | | | | | | | | | | | | | -                                                         m ..| | | | | | | | | | | | | | | | | ",
"| | | | | | | | | | | | | | | | -                                                         m  .| | | | | | | | | | | | | | | | | ",
"| | | | | | | | | | | | | | |  .-                                                         m  .| | | | | | | | | | | | | | | | | ",
"| | | | | | | | | | | | | | |  .-                                                         m ..| | | | | | | | | | | | | | | | | ",
"| | | | | | | | | | | | | |  . .D V V V V V V V V V V V V V V V V V V V V V V V V V C V Z [  . .| | | | | | | | | | | | | | | | ",
"| | | | | | | | | | | | |  . . .H G F F F F F F F F F F F F F F F F F F F F F F F F F F G } .. .| | | | | | | | | | | | | | | | ",
"| | | | | | | | | | | | | { n n S Z Z Z Z Z Z Z Z Z Z Z Z Z Z Z Z Z Z Z Z Z Z Z Z Z Z Z A x n ] | | | | | | | | | | | | | | | | ",
"| | | | | | | | | | | | X.u                                                                   - | | | | | | | | | | | | | | | | ",
"| | | | | | | | | | | ..O.p                                                                   - X.X. . .| | | | | | | | | | | | ",
"| | | | | | | | | | { t t :                                                                   X t w b  .| | | | | | | | | | | | ",
"| | | | | | | | |  .]                                                                               y ..| | | | | | | | | | | | ",
"| | | | | | | | |  .[ . .     .       . . . .   . . . . .   .   . . .   . . . . .           .     . u X.| | | | | | | | | | | | ",
"| | | | | | | | | | | M ] ] M ] &   + U U U U U U U U U U U U U U U U U U U U U Y T 7     z [ ] ] ] { | | | | | | | | | | | | | ",
"| | | | | | | | | | |  . .|  . .%   + ^ / ^ / / ^ / / ^ ) ^ ^ ^ / / ^ / / / / ^ / _ 8     m .. . . . .| | | | | | | | | | | | | ",
"| | | | | | | | | | | | | | | | d a s 1.1.1.1.>.1.1.1.1.1.1.>.>.1.1.1.1.1.1.1.1.1.2.E a a [ | | | | | | | | | | | | | | | | | | ",
"| | | | | | | | | | | | | | | | q.g.p.p.p.p.p.p.p.p.p.p.p.p.p.p.p.p.a.i.p.p.p.p.p.p.s.d.d.+.| | | | | | | | | | | | | | | | | | ",
"| | | | | | | | | | | | | | | | w.g.g.r.p.r.r.p.a.a.a.a.a.a.a.a.i.u.p.f.f.f.f.f.i.f.i.i.u.+.{ | | | | | | | | | | | | | | | | | ",
"| | | | | | | | | | | | | | | | v f N r.p.p.p.u.8.;.:.:.:.:.;.9.u.s.0.W Q Q Q Q Q W 5.f.i.+.| | | | | | | | | | | | | | | | | | ",
"| | | | | | | | | | | | | | | | %   < p.p.r.p.u.=.#.$.$.$.$.$.&.y.f.3.J K K K K K J ,.f.i.+.| | | | | | | | | | | | | | | | | | ",
"| | | | | | | | | | | | | | { { < . 4 t.e.r.i.r.-.$.%.%.%.%.%.*.y.s.4.K L L L L L K <.f.i.+.| | | | | | | | | | | | | | | | | | ",
"| | | | | | | | | | | | X.i . X j ! ! ` ) 7.d.u.-.$.%.%.%.%.$.*.y.i.4.K L L L L L K <.f.u.+.{  .| | | | | | | | | | | | | | | | ",
"| | | | | | | | | | | | ..u     P _ ( ( ~ 6.p.u.=.#.$.$.$.$.$.&.y.f.4.J K K K K K J ,.f.u.+.| | | | | | | | | | | | | | | | | | ",
"| | | | | | | | | | | | ..u     P ) ( ( ~ 6.p.u.8.:.:.:.:.:.;.9.y.s.0.W Q Q Q Q Q W 5.f.i.+.|  .| | | | | | | | | | | | | | | | ",
"| | | | | | | | | | | | X.u     P _ ( ( ~ 6.s.p.a.a.a.a.a.a.a.a.p.p.i.f.f.f.f.f.f.f.f.u.i.+.{  .| | | | | | | | | | | | | | | | ",
"| | | | | | | | | | | | X.u     I _ ( ( ~ 6.d.p.p.p.p.p.i.i.s.p.p.p.p.p.p.p.p.p.p.p.d.f.s.+.| | | | | | | | | | | | | | | | | | ",
"| | | | | | | | | | | | ..u     * 1 6 ( ^ ' 1.1.1.1.1.1.>.>.>.1.1.1.1.1.>.1.1.1.1.2.E 7 a [ | | | | | | | | | | | | | | | | | | ",
"| | | | | | | | | | | | ..u         + ( ( ^ ^ ~ ^ ~ ^ ^ ~ ^ ^ ^ ( / ^ / / ^ ^ ~ ^ / 8     n .. .| | | | | | | | | | | | | | | | ",
"| | | | | | | | | | | | X.p # % .   * ( ( ( ( ( ( ( ( ( ( ( ( ~ Y U U U U ! ( ( ( _ 0     n  .| | | | | | | | | | | | | | | | | ",
"| | | | | | | | | | | | | | | { -   * ( ( ( ( ( ( ( ( ( ( ( ) ! o   . . . j ) ( ( _ 0     m ..| | | | | | | | | | | | | | | | | ",
"| | | | | | | | | | | | | | |  .-   + ( ) ( ( ( ( ( ( ( ( ( ( ! .         h _ / ( _ 0     m ..| | | | | | | | | | | | | | | | | ",
"| | | | | | | | | | | | | | | | -   * ( ( ( ( ( ( ( ( ( ( ( ( ! 0 7 7 7 7 U ) ( ) _ 0     m  .| | | | | | | | | | | | | | | | | ",
"| | | | | | | | | | | | | | | | -   * ( ( ( ( ( ( ( ( ( ( ( ( ( _ _ _ _ _ ( ( ( ( _ 0     m ..| | | | | | | | | | | | | | | | | ",
"| | | | | | | | | | | | | | | | -   + ( ( ( ( ( ( ( ( ( ( ( ( ( / ( ( ( ( ( ( ( ( _ 0     m ..| | | | | | | | | | | | | | | | | ",
"| | | | | | | | | | | | | | | | -   * ( ) ( ( ( ( ( ( ( ( ( ( ( ( ( ( ) ( ( ( ( ( _ 0     m  .| | | | | | | | | | | | | | | | | ",
"| | | | | | | | | | | | | | |  .-   * ( ( ( ( ( ( ( ( ( ( ) ) ) ) ) ) _ ) ( ( ( ( _ 0     m  .| | | | | | | | | | | | | | | | | ",
"| | | | | | | | | | | | | |  . .-   * ( ( ( ( ( ( ( ( ( ) Y P P P P P P P ! ) ( ( _ 0     m ..| | | | | | | | | | | | | | | | | ",
"| | | | | | | | | | | | | | | | -   * ( ( ( ( ( ( ( ( ( _ 2               j _ ( ( _ 0     n  .| | | | | | | | | | | | | | | | | ",
"| | | | | | | | | | | | | | | | -   * ( ( ( ( ( ( ( ( ( ) 2               h ) ( ( _ 0     n  .| | | | | | | | | | | | | | | | | ",
"| | | | | | | | | | | | | | |  .-   + ( ( ( ( ( ( ( ( ( ( j q q q q q q q T ) ( ( _ 0     n  . .| | | | | | | | | | | | | | | | ",
"| | | | | | | | | | | | | | | | -   * ( ( ( ( ( ( ( ( ( ( ) _ _ _ _ _ _ _ ( ( ( ) ` 0     m  .| | | | | | | | | | | | | | | | | ",
"| | | | | | | | | | | | | | | | -   * ( ) ( ( ( ( ( ( ( ( ( ( ( ( ( ( ( ( ( ( ( ~ ( 0 . . n  .| | | | | | | | | | | | | | | | | ",
"| | | | | | | | | | | | | | |  .-   * ( ( ( ( ( ( ( ( ( ( ( ( ^ ( ( ( ( ( ( ( T + o r { [ {  . .| | | | | | | | | | | | | | | | ",
"| | | | | | | | | | | | | | | | -   * ( ( ( ( ( ( ( ) ) ) ) ) ) ) ( _ _ ) ) _ T     w o. .| | | | | | | | | | | | | | | | | | | ",
"| | | | | | | | | | | | | | |  .-   * ( ( ( ( ( ( ) R h h h h h h h h h h h h g , > p  .| | | | | | | | | | | | | | | | | | | | ",
"| | | | | | | | | | | | | | | | -   * ( ( ( ( ( ^ _ j                         #  .o. .| | | | | | | | | | | | | | | | | | | | | ",
"| | | | | | | | | | | | | | |  .-   * ( ( ( ( ( ( _ h                         X { | | | | | | | | | | | | | | | | | | | | | | | ",
"| | | | | | | | | | | | | | | | -   + ( ( ( ( ( ( _ j     3 z l l l l l l l l z | | | | | | | | | | | | | | | | | | | | | | | | ",
"| | | | | | | | | | | | | | |  .-   * ( ( ( ( ( ( _ j     k o... .X.......X.....| | | | | | | | | | | | | | | | | | | | | | | | ",
"| | | | | | | | | | | | | | | | -   * ( ( ( ( ( ( ) j     p ..| | | | | | | | | | | | | | | | | | | | | | | | | | | | | | | | | ",
"| | | | | | | | | | | | | | |  .-   * ( ) ( ( ( ( _ j     p X.| | | | | | | | | | | | | | | | | | | | | | | | | | | | | | | | | ",
"| | | | | | | | | | | | | | |  .-   * ( ^ ( ( ( ^ _ j     p ..| | | | | | | | | | | | | | | | | | | | | | | | | | | | | | | | | ",
"| | | | | | | | | | | | | | | | -   * ( ( ( ( ( ( ) j     p X.| | | | | | | | | | | | | | | | | | | | | | | | | | | | | | | | | "
};
