/* XPM */
static char *result[] = {
/* columns rows colors chars-per-pixel */
"64 64 232 2 ",
"   c #733E39",
".  c #7A3E39",
"X  c #6C3F3F",
"o  c #7B4439",
"O  c #794239",
"+  c #543C59",
"@  c #6E354D",
"#  c #75374A",
"$  c #723A50",
"%  c #3A4466",
"&  c #3E486A",
"*  c #3C4668",
"=  c #4A435D",
"-  c #4D475F",
";  c #55485C",
":  c #5A555E",
">  c #694247",
",  c #7C474B",
"<  c #734542",
"1  c #65485A",
"2  c #794759",
"3  c #695759",
"4  c #745453",
"5  c #7A544F",
"6  c #434362",
"7  c #4A4462",
"8  c #454A65",
"9  c #434C6A",
"0  c #4C4D65",
"q  c #584662",
"w  c #4D5268",
"e  c #515160",
"r  c #52536C",
"t  c #5B576B",
"y  c #4B5777",
"u  c #535C79",
"i  c #664663",
"p  c #784B64",
"a  c #655D6B",
"s  c #6B5A6D",
"d  c #735369",
"f  c #665B75",
"g  c #7D5D76",
"h  c #59617F",
"j  c #756468",
"k  c #656574",
"l  c #67667A",
"z  c #6D717E",
"x  c #7A7778",
"c  c #6D626B",
"v  c #7B6555",
"b  c #9C2936",
"n  c #952A39",
"m  c #9B2D3B",
"M  c #9C2934",
"N  c #933C3C",
"B  c #823D3B",
"V  c #A22633",
"C  c #A42A33",
"Z  c #AA2D33",
"A  c #B52C38",
"S  c #AC3332",
"D  c #AB3A3C",
"F  c #B33C30",
"G  c #B53638",
"H  c #B73A2F",
"J  c #C3323C",
"K  c #CC363D",
"L  c #CE343E",
"P  c #844236",
"I  c #874739",
"U  c #9B4534",
"Y  c #984937",
"T  c #8B5238",
"R  c #975A37",
"E  c #BE4A2F",
"W  c #B9432F",
"Q  c #AD4935",
"!  c #A74632",
"~  c #B64231",
"^  c #BA4530",
"/  c #B54931",
"(  c #BD4A30",
")  c #B74B3B",
"_  c #B35334",
"`  c #B96738",
"'  c #B77537",
"]  c #C24E2F",
"[  c #C7532E",
"{  c #D65C29",
"}  c #C04D30",
"|  c #C35332",
" . c #C95C30",
".. c #C65B3C",
"X. c #DF543F",
"o. c #E7583F",
"O. c #CD6230",
"+. c #CC6835",
"@. c #D26933",
"#. c #DC7B31",
"$. c #D67634",
"%. c #D46E2F",
"&. c #E86925",
"*. c #E77629",
"=. c #F67622",
"-. c #F77923",
";. c #E96A3D",
":. c #F1753C",
">. c #EF6E3D",
",. c #882E40",
"<. c #913647",
"1. c #883A4C",
"2. c #B83E49",
"3. c #AF3E4C",
"4. c #C83A43",
"5. c #DC3A42",
"6. c #D53842",
"7. c #E33B44",
"8. c #8C4E45",
"9. c #875549",
"0. c #975B45",
"q. c #834358",
"w. c #8E524E",
"e. c #B34A47",
"r. c #B8544C",
"t. c #B45150",
"y. c #B2514D",
"u. c #9A784E",
"i. c #946454",
"p. c #8A6E51",
"a. c #AC6D4D",
"s. c #977569",
"d. c #837A73",
"f. c #88726C",
"g. c #A97762",
"h. c #D7444A",
"j. c #D5524E",
"k. c #E54243",
"l. c #E54942",
"z. c #E44947",
"x. c #EA5741",
"c. c #E44E51",
"v. c #E15951",
"b. c #C96646",
"n. c #C87446",
"m. c #D67543",
"M. c #D57D4C",
"N. c #D26F4D",
"B. c #E5625D",
"V. c #E66B54",
"C. c #DD7066",
"Z. c #E56962",
"A. c #CC893B",
"S. c #D68934",
"D. c #D6943C",
"F. c #EC8B2E",
"G. c #F3872A",
"H. c #E48733",
"J. c #F5863A",
"K. c #EE9432",
"L. c #E69A37",
"P. c #F29A32",
"I. c #F99638",
"U. c #F7992E",
"Y. c #EAA63E",
"T. c #EDA439",
"R. c #F6A233",
"E. c #FCA434",
"W. c #FDAC34",
"Q. c #F5AA39",
"!. c #F7AA37",
"~. c #FDB03B",
"^. c #AC8C5E",
"/. c #B5884B",
"(. c #A88667",
"). c #BA8D6E",
"_. c #B99477",
"`. c #B49070",
"'. c #92806B",
"]. c #CD9645",
"[. c #D69D48",
"{. c #C49652",
"}. c #C58E54",
"|. c #F1AE4A",
" X c #D48A67",
".X c #D6966C",
"XX c #CD9B73",
"oX c #D39C75",
"OX c #D78671",
"+X c #E38966",
"@X c #E58E6F",
"#X c #D5A478",
"$X c #C7A572",
"%X c #E4A672",
"&X c #E4A975",
"*X c #E5AC79",
"=X c #E8AC6E",
"-X c #5B6684",
";X c #5B6988",
":X c #5B6885",
">X c #646D83",
",X c #646B83",
"<X c #757786",
"1X c #798397",
"2X c #8F8A87",
"3X c #AE9788",
"4X c #BCAB95",
"5X c #BDAB92",
"6X c #959CA8",
"7X c #8B9BB4",
"8X c #D69F81",
"9X c #E69E85",
"0X c #C9AA8B",
"qX c #D7A889",
"wX c #D3BA98",
"eX c #C8B39A",
"rX c #E1AB8A",
"tX c #E5B280",
"yX c #E7BD8E",
"uX c #E9BB83",
"iX c #E6B994",
"pX c #DCC39D",
"aX c #E9C89C",
"sX c #E7C39C",
"dX c #EDC58E",
"fX c #D8C5A3",
"gX c #E4CCA5",
"hX c #E9CEA3",
"jX c #E5C4A0",
"kX c #EAD1A7",
"lX c #EAD4AA",
"zX c None",
/* pixels */
"zX%X%XaXaX&XhXyX*XlXtXtXhX&XiXhX%XhXaX&XhXtX*XlX&XiXkX&XsXaX%XhXyX*XlXtXtXkX*XyXgX%XhXaX&XhXtX*XlX*XyXkX&XaXaX%XhXyX*XkXtXtXlXlX",
"zX%X%XaXsX&XhXyX*XlXtXtXhX&XiXhX%XaXaX&XlXtX*XkX*XiXkX%XaXaX%XkXyX*XlXtXtXlX&XyXjX%XhXaX&XkXtX*XlX*XyXkX&XsXaX%XhXyX*XkXtXtXlXlX",
"zXtX*XqX#X XqX.X XqX.X.XqX XoX8X XqX#X XqX.X XqX XoXqX XoX8X XqXXX_.4X_._.eX`.3X5X).5X5X_.4X_._.4X`.3XeX).5X5X).5X3X_.4X_.XXsXaX",
"zXlXlXt.V V V C V M V V V Z C C V V V V V C C C C V V V V V V C @ * 6 6 % 6 6 7 % 6 6 6 6 6 6 6 6 6 6 6 6 6 % 6 % = = 6 * a &X&X",
"zX*X*Xe.Z ^ E ^ F . F ] } &.{ H ^ ^ ^ W ( { &.^ ^ N . ~ ^ ^ ^ ^ , % n n n n n n n n n n n n n n n n n n n n M n b b n n = k hXhX",
"zXyXyXe.Z ] E ! Y `.0.! } { [ ] E U ! E E { { E U a.`.Y ^ ] E E , + M # 1.) @ @ $ 2 $ @ @ @ a.t.@ @ @ @ 2 @ @ @ ) 8.# M + k yXyX",
"zXkXhXy.Z E / U w.lXs.T ^ ] ] } E T Y E E E ( / 8._.gX9.! / ( ( , + C $ 3 m.; 7 7 -X& % % 0  X.Xy & & & -X7 7 0 b.i.; V + a *X*X",
"zX%X%Xe.Z E . ' |.lXlX0X  ^ H } E R.K.E E E / O wXlXlXlXi.P ( ( , 6 C b.m.m.m.) n % % * 9 oXc.c.kXr % % % ,.D m.m.m.b.Z + l lXkX",
"zXaXaXy.C I S.L.W.B.iXgX0XI ! } L.v p.F.E T 8.0XhXrXZ.hXwX_.P / , 6 M $ 9.N.) Z n % % t  Xj.2.A B.5X<X% % ,.V 3.b.i.1 V + a tXtX",
"zXaXaXy.M P A.|.|.B.iXgX0XI Q @.D.8 : D.O.Y T 0XdX@Xx.gXwX_.P W , 6 V + ; ..V V n % t f.+X6.A A L 9X3Xl % n V V ..w.6 b + a tXtX",
"zX&X&Xe.S E P (.kXlXgX0Xo ] #.[.% % % 8 T.+._ O L.W.~.sX0.P E E , 7 V + ; b M b n 0  X X7.V L 7.V 5.C.jXr ,.b b b @ 7 b + k lXlX",
"zXkXkXy.C E E U w.lXi.8.E R.u.8 % % % % = A.P.E I ' !.T ! E E ] , 6 V s u 6 % % e oXc.6.C 7.7.7.5.A 4.c.fXl 6 6 % y f m + a &X&X",
"zXyXyXy.F { ] ! 0.(.R _ #.u.3 & % 9.9.% % p.u.#.! _ ' Y / ] { ] , 6 V q y % * a s.Z.4.J J 7.;.>.7.J J K C.3Xx * % 9 r b + k yXyX",
"zX*X*Xe.H &.] ] ~ O _ +.L.& % 8 - &.%.e % % e T.O.Y P _ ] [ =.] # 7 V + % % w s.+X5.A A 7.k.I.E.k.7.J Z 5.9X0Xr * % 7 M + k hXhX",
"zXkXkXt.Z E E E ^ ] L.D.% % % - =.=.=.*.= % % % L.H.E E E E E E q.+ M + % 8 .XV.5.V 5.7.k.W.W.W.W.l.7.7.V L B.kXr % 6 M + a %X%X",
"zX*X*Xe.Z E E ( [ R.v 0 % % T *.=.=.=.=.*.1 % % e u.P.] E E E E , = M + t .Xc.K S 5.7.x.I.W.%.O.W.I.;.7.5.A 2.c.eX2X= M + k hXhX",
"zXtXtXe.Z ( ! ( +.D.: % % 3 ` =.=.=.=.=.=.9.1 % % p.A.+._ ! E E , + C 2 f.C.6.J A 7.x.>.W.P. .| P.W.J.x.7.J J L 9X3Xf C + k aXaX",
"zXkXhXt.Z E P ' L.8 % % = %.=.-.=.=.=.=.=.=.%.% % % e T.R P E E , 6 V  XOX7.V 4.7.7.I.W.W.| ] ( | R.W.I.X.7.L V 7.C.wXC + f &X&X",
"zX*X%Xe.S ( E (  .Q.3 % % 8 0.-.=.=.=.=.-.3 = % % u.Q.| ] ^ E E , 6 V + c jXc.4.A 7.k.o.W.E.O. .E.W.:.k.7.A A 7.@Xs.q b + l kXkX",
"zXaXaXr.S E E E ( O.A./.% % ; 5 =.=.=.*.4 - % % /.$.O.( ] E E E , 6 V + 0 z rXC.L A 5.k.o.W.P.P.W.;.l.7.A J j.+Xj r 6 b + a tXtX",
"zXaXhXt.S ] ^ E ( ) H.A.e % % 0 *.-.-.%.= % % e L.$.~ ( ] ] ] ] , 7 V + % * eXOXc.Z L 7.7.I.W.W.E.k.5.5.Z 6.v.XX0 % 6 b + a *X*X",
"zX%X%Xe.F =.] E / O ! O.!.8 % % % %.+.% % % e W...Y . ^ ^ [ =.] , 6 V + % % % 2XsX7.C A 7.7.I.I.7.7.J C 7.@X`.% % % 6 b + l lXlX",
"zXhXgXt.Z ] ] U 9.wX0.P  .L.u.* % = - % % /.L.| I g.wXP / E [ E , 6 V i -X% & 9 f jXz.6.A 5.z.k.7.A J 5.@Xj 8 % % y f m + a *X*X",
"zXyXyXe.S ^ U a._.lX}.' U $.' p.% % % % u.$.$.Y (.0XgX`.0.! E E , 6 V i r @ @ $ $ 2XOXC.J J 5.5.J J j.V.s.2 @ @ @ q r m + a yXdX",
"zX&X&Xe.S / I `.lXhX|.L.o / #.L.8 % % e T.O./ < aXlXgXlXi.8.( / , 7 V + + Z V V n % eXrXk.Z 6.6.Z h.V.XX9 ,.V V C @ = b + k lXgX",
"zXkXkXt.n o wXgXjXz.I.!.T.P U  .T.e 3 R.[ I T fXlX@Xc.gXgX0XO / , 6 M + ; @.Z V n % 9 z jXz.A A 7.@Xf.9 % ,.V V b.w.6 M + a &X&X",
"zXtX*Xy.C Q i._.kXiXdX#XR Q ^ } O.A.A.O.E Q ! i.aX=XI.|.a.0.! E , 7 V y.b.m.b.~ n % % 9 l rXc.4.+Xj w * % n D +.m.n.y.V + k aXaX",
"zXtX*Xe.S ( I g.qXlXwX_.P / E E E S.S._ E E E P 0X=X!.L.R U E E , 7 V y.a.m.a.8.# 9 & % 9 4XC.v.).0 * * & @ <.a.m.n.a.V + k sXaX",
"zXlXlXt.C E E Y 9.lXi.P ( ( ( } E o P E E E E E . ' !.o ! E E E , + C + 3 N.6 % & ;X& * % % ).XX% % % % ;X& & % a.i.6 M + a %X%X",
"zX*X*Xe.S E E ( Q 9.! ^ | &.{ ( E W / E E &.&.E / ! I / E E E E , 7 V n m Z n n n m n n n n D D n n n n m n n n Z m b V + l hXhX",
"zXyXyXy.C E E E ^ U ) ^ ] { [ } E E E E E { { E E ! U E E E E ] , % @ @ @ @ @ @ @ @ @ @ @ @ @ @ @ @ @ @ @ @ @ @ @ @ @ @ = a yXyX",
"zXkXhXt.m Q Q / Q Q Q Q Q Q / Q ! / Q Q Q Q Q Q Q Q Q Q Q Q Q Q , 6 = = 7 6 = 7 = = e e 0 & & & & e e - 7 = 7 7 + = = 7 = j *X*X",
"zX&X&Xs 6 6 6 6 = % 6 6 6 % % = 6 6 6 6 % * = % = % 6 6 6 6 6 6 , / / / ~ m ^ / / / L.Q.Y.h :X:X:X[.!.T.( / / / m D / / / b.lXlX",
"zXaXaXk q 3.7 % * -X9 & % h 9 % % y y % % y u % % y u % % q 2.7 , E ] S Z M Z F E E O.#.W.[.x z ].Q.F.O.E E ^ S V C S ^ } b.tXtX",
"zXaXsXk q 3.+ + i g i 1 3 k r = = j c = = t k 3 1 d g i 7 $ 2.7 , E ~ C M <.M S W E E  .P.W.(.'.W.P.%.E ] ^ S C <.<.C F / b.tXtX",
"zX&X%Xa % 6   3.5.5.k.x.R.O     O *.%.  O O I E.l.5.7.5.<.> % % , ^ V M 1.,X<.V V E E E } R.W.W.!. .E E ^ Z C m l 2 V V F b.hXlX",
"zXhXhXk * 6 4.2.A 7.J.J.l.O       P.S.O     O l.I.>.5.A 4.3.% % @ Z V d -X;X-X1.C C E E E [ P.!.[ E E E C C <.l ;X,Xs m C e.*X*X",
"zXyXyXk * u 6.6.K :.:.;.N     O ' F.F.' O O . D ;.:.>.J 6.3.y * # S V q.p ,Xp <.M F E E E #.R.W.H.} E E F C n 2 -Xf 1.V S b.yXyX",
"zX*X*Xa 9 -Xh.k.x.I.X.)     o R W.*.*.R.T o     K ;.I.x.7.j.:X& , ^ C V <.f V V S E E E  .W.Y.Y.W.O.] E E S C V f 1.C C H b.gXgX",
"zXlXkXl * 7 4.>.R.7.N   O O ' E.=.= 3 -.W.T     O 3.k.W.x.3.% % , E ( Z V V V G E E E O.W.W.d.z W.W.#.E E E ~ V V V C ( ] b.%X%X",
"zXtXuXa & 8 S.V.X.I .   O S.F.*.3 % = 4 F.F.A.O O . N o.J.}.* % , E E ^ F M F ^ E E F.P.~.'.>X;Xx Q.R.F.} E E W V D ^ E E b.aXaX",
"zXtX*Xa % w A.@.G     P R P.H.` % % % % ` K.K.R O O   G $.' & % 9.O.E E W S E E ] O.R.Q.{.>X;X;X:X{.Y.W.@.} E E S G ^ ]  .M.aXaX",
"zXkXkXl & -X< O     o R W.*.0.% % - & % % ` *.W.T O     O > ;X& u.!.} E E E E E  .W.Q.[.>X>X:X:X>X>X^.Q.W.@.] E ( E } ] U.|.&X&X",
"zX*X%Xa % % O .   O D.U.*.; 8 % % eX4X% % = : -.U.'       > & % u.W.E.O.E E E #.!.W.x d.Q.Y.3X6XQ.Q.^.z Q.E.F.E } ( | R.W.|.kXlX",
"zXyXyXk % % O X o ' F.H.0.6 * 9 2XfXfX2X% % - 0.F.S.' O O > % % j /.W.H.%.E #.K.Q.^.z d.~.$X6X6X$X|.^.:X(.Y.W.S.]  .H.!.{.$XyXyX",
"zXhXhXk % & o P R E.*.` % * 9 k lXjXaXgXt & % % +.F.R.T o > & % y z Y.!.P.O.W.Q.[.:X:X1X|.6X7X7X7X|.(.:X;X{.T.W.O.S.W.|.x <X&X&X",
"zX%X&Xa 9 ,X#.U.W.=.3 % % % 2XlXlXc.V.lXlXk % % % 0.-.W.G.$.;X* y ;X;X[.W.W.W.^.:X;X;X>X7X7X7X7X7X7X1X;X:X:Xd.W.W.W.Y.l ;X2XlXlX",
"zXhXhXk * 9 o P T !.*.` % % 9 l lXhXaXgXu & % % +.F.R.T I < * % y z |.!.P. .W.Q.[.;X;Xd.|.7X7X7X7X[.(.;X:X{.!.W. .H.E.|.x <X*X*X",
"zXyXyXk % % X   o ' F.H.0.6 % 9 '.fXfX1X& * = 0.K.S.'     > % % v ^.W.H.%.} #.K.Q.^.>Xx ~.$X6X6X$X~.^.;X^.Y.R.#.E O.H.E./.$XdXyX",
"zX&X%Xa % 6 #     O S.P.*.e * % % fX4X* % 8 ; -.R.'       @ % % ^.W.E.O.( } ( #.!.!.x '.Q.Q.3X6X|.Q.^.z Q.E.K.E E E  .R.~.|.kXhX",
"zXlXkXk 9 -X> O     o R W.*.0.% % 8 % % % ` -.W.T O     . 4 ;X* u.R.] ] } ^ ( }  .W.Q.[.>X>X;X;X;Xz ^.Q.W.@.] E E E E E K.~.&X&X",
"zXtXtXa * 9 ].@.G O   o R P.H.` % % % 6 ' K.P.R O   O J S.a.& * 9. .] ^ ^ S ^ ( E O.!.~.{.>X:X:X;X{.Y.W.@.} E E S ~ E E  .}.aXaX",
"zXtX*Xk % 8 H.:.j.N . O o S.F.H.3 6 = 4 G.H.A.    . Y x.:.}.% % < E E ^ F V H ^ E E K.P.Q.'.>X>Xd.Y.U.F.E E / ^ C S F } } b.jXaX",
"zXlXlXl % 6 5.V.E.7.N O O   ' R.-.- 3 =.W.R     O D k.E.o.2.% % , E E Z V V C F E E E O.W.W.x z W.W.S.E E E W V V V Z ( } ..%X%X",
"zX*X*Xa 9 ,X6.z.o.U.o.G     o R W.*.*.P.T O     K ;.R.o.7.e.-X* , E C V <.f M C S E E E  .W.Q.T.W.+.[ E E S C V f q.V C F b.hXhX",
"zXyXyXk & r 4.6.K :.:.@.S     o ' F.F.' O   . 3.;.:.>.J L h.y * # S V q.d ;X2 <.M F E E E $.R.!.H.E E E ~ C m 2 ,Xf q.V S b.yXyX",
"zXhXhXk % 6 4.J A 7.J.J.z.O O X   L.S.      o l.I.;.7.Z K 3.% % # C V d l ;Xf q.V C ^ E } [ P.R.| ] ] ^ C V <.,X-X-Xf V C y.*X*X",
"zX%X*Xs % % X D 7.7.k.x.R.O       *.%.      T W.l.7.7.7.N @ % * , ^ V M 1.-Xm m C ^ } E } R.W.~.E.| } } ^ C V C f p V V F b.kXkX",
"zXaXaXk q 3.; ; i g i 1 3 k r = = j c = + t t 3 1 p g i = 1 2.7 , E W C m <.V S ^ E }  .K.W.(.'.W.P.%.} } ~ F V <.<.V H ^ b.tXtX",
"zXaXsXk q 3.- % 9 u 9 * & u 9 % % u y % % y u % % y u & * + e.6 , E E S C V S F E }  .#.W.[.x z [.W.H. .} ] ~ S V C A } ] b.tXtX",
"zX*X=Xs & 9 9 9 8 8 8 9 9 9 9 8 & 9 9 9 8 9 8 8 9 9 9 9 & 9 9 9 q.| _ ( ) S } | | | R.~.|.>X>X>X>X|.Q.W.| | ( _ S ^ | ] | N.gXlX",
"zXhXkX#X#XfXXXqXwXXXwXwXXXfXqXXXfX#X#XfXoXwXwXXXwXqXXXfX#X#XfX#XqXyX%XyXiX.XsXrX#XaX=X*XaX#XwXfXoXaXuX=XsX*X*XsXoXqXiX%XyXiX*X*X",
"zXlXlXtXtXlX*XyXkX%XaXaX&XkXdX*XlX*X*XkX&XaXhX%XhXyX&XkXtXtXlX&XdXkX%XaXaX&XkXyX*XlX*XtXkX=XaXhX%XhXyX%XlX*X*XlX*XyXkX%XaXaX&X%X",
"zXlXlXtXtXkX&XyXhX%XaXaX&XkXdX#XlX*XtXkX&XaXhX%XhXyX&XkXtXtXlX&XyXhX%XaXaX&XhXyX*XlX*X*XkX*XaXhX%XhXyX&XlXtXtXlX*XyXkX#XaXaX%X%X"
};
