/* XPM */
static char *_0799a90b00f4ab59c35c73f191e6e93dPxj81TNNUU07jv8[] = {
/* columns rows colors chars-per-pixel */
"43 55 174 2 ",
"   c None",
".  c #670101",
"X  c #6C0102",
"o  c #740205",
"O  c #7B0105",
"+  c #7A0609",
"@  c #730C0D",
"#  c #7F0A0D",
"$  c #761D1E",
"%  c #7D1A1C",
"&  c #7F1E20",
"*  c #7C3334",
"=  c #7F3B3B",
"-  c #830107",
";  c #880106",
":  c #830309",
">  c #8C020A",
",  c #850A0D",
"<  c #8E090E",
"1  c #93010B",
"2  c #9C030E",
"3  c #8A0D11",
"4  c #9E0711",
"5  c #990911",
"6  c #871115",
"7  c #8A1012",
"8  c #85171B",
"9  c #931215",
"0  c #921619",
"q  c #9E1C1F",
"w  c #A2020F",
"e  c #AA010F",
"r  c #A60310",
"t  c #AC0312",
"y  c #A30B14",
"u  c #AD0B17",
"i  c #AD0F1B",
"p  c #B30212",
"a  c #BB0213",
"s  c #B70F1D",
"d  c #BD0B1A",
"f  c #A1101A",
"g  c #AE101C",
"h  c #B4111E",
"j  c #BA101C",
"k  c #861F23",
"l  c #9E1C24",
"z  c #AD1C25",
"x  c #A71E29",
"c  c #AF1E2A",
"v  c #B51321",
"b  c #BF1320",
"n  c #B21924",
"m  c #BC1B25",
"M  c #812527",
"N  c #83292A",
"B  c #882B2E",
"V  c #912126",
"C  c #9F2124",
"Z  c #952329",
"A  c #9D2A2D",
"S  c #842E30",
"D  c #833233",
"F  c #873538",
"G  c #833F3F",
"H  c #8B3B3D",
"J  c #94353A",
"K  c #A32225",
"L  c #A92025",
"P  c #A72329",
"I  c #AE212D",
"U  c #A0282B",
"Y  c #AC2A2E",
"T  c #B4272D",
"R  c #A42D36",
"E  c #AC2E35",
"W  c #AF2F3A",
"Q  c #BE2F38",
"!  c #A33335",
"~  c #A4363C",
"^  c #AD333B",
"/  c #AC3A3C",
"(  c #B4363C",
")  c #BC3139",
"_  c #C30214",
"`  c #CB0217",
"'  c #CE0418",
"]  c #C30C1C",
"[  c #CA0B1C",
"{  c #D1051A",
"}  c #D30A1E",
"|  c #D60C20",
" . c #DB0D22",
".. c #C01C28",
"X. c #DD1125",
"o. c #D21B2B",
"O. c #DD1B2D",
"+. c #E01327",
"@. c #E5192D",
"#. c #E41E31",
"$. c #EB1F33",
"%. c #CC212E",
"&. c #CC2935",
"*. c #CB2F3A",
"=. c #DC2334",
"-. c #D42433",
";. c #E52638",
":. c #E52B3E",
">. c #9B3F43",
",. c #A53E47",
"<. c #AD3D46",
"1. c #A63F48",
"2. c #C13740",
"3. c #CE3F4B",
"4. c #C23A43",
"5. c #D43E4B",
"6. c #E72D40",
"7. c #E13F4F",
"8. c #E43345",
"9. c #864A4A",
"0. c #8A4C4D",
"q. c #834646",
"w. c #964045",
"e. c #894E50",
"r. c #974C50",
"t. c #8A5252",
"y. c #9E5457",
"u. c #965A5A",
"i. c #AB4345",
"p. c #A7414A",
"a. c #AE454B",
"s. c #A64A4E",
"d. c #AC4B4E",
"f. c #A24245",
"g. c #B34146",
"h. c #AD4B52",
"j. c #A34C52",
"k. c #B74C51",
"l. c #BB4C53",
"z. c #AD5256",
"x. c #AD5B5D",
"c. c #B65559",
"v. c #AE5860",
"b. c #BE5C63",
"n. c #AE6466",
"m. c #AF6B6E",
"M. c #B66B6E",
"N. c #B46E71",
"B. c #B96E73",
"V. c #B27476",
"C. c #BA7074",
"Z. c #BD767D",
"A. c #BF787F",
"S. c #B17A7C",
"D. c #C8444E",
"F. c #CC4A55",
"G. c #C34B55",
"H. c #D74453",
"J. c #D24B57",
"K. c #D54F5D",
"L. c #C3535C",
"P. c #D1505D",
"I. c #F24556",
"U. c #CF5863",
"Y. c #D25A66",
"T. c #CE606B",
"R. c #C26B73",
"E. c #CA6B74",
"W. c #C57179",
"Q. c #C2787F",
"!. c #BE7A81",
"~. c #AE8082",
"^. c #BF8187",
"/. c #BE838A",
/* pixels */
"                                                                                      ",
"                                        ^.                                            ",
"                                      E.I.                                            ",
"                                      H.$.Y.                                          ",
"                                    Y.@.X.6.^.                                        ",
"                                    8.} | +.K.                                        ",
"                                  Y.+.} { } ;.Q.                                      ",
"                                  :.} { { {  .H.                                      ",
"                                K. .{ { ' ' } @.W.                                    ",
"                              !.;.{ ` ` ` ' ' } H.                                    ",
"                              J.} ' ` ` ` _ ` ' #.R.                                  ",
"                            !.=.' _ _ _ ` _ _ _ { 5.                                  ",
"                            F.} _ _ _ _ _ _ _ _ _ O.R.                                ",
"                          A.=.` _ _ a _ _ _ a _ _ [ 5.                                ",
"                          F.[ a a a a a a a a a a _ o.R.                              ",
"                        !.-.a a a a a a p a a a p a ] 3.                              ",
"                        F.] p p p p a p p p p p p p a o.R.                            ",
"                        &.a p p e p p p p p p p p p p d D.                            ",
"                      L.] p t t p t e e t t p t t t t p %.Z.                          ",
"                      *.u t t e t t t e r t t t e t t t d G.                          ",
"                    b.b e w w e w w w e r r w r w t w w t &.                          ",
"                    4.u w w w w w w w w w w w w w w w w r j b.                        ",
"                  C...w 2 w 2 2 w 2 2 2 2 2 w 2 2 w 2 w 2 y 2.                        ",
"                  l.u 2 2 2 2 2 2 2 2 2 2 2 2 2 2 2 2 2 2 r m B.                      ",
"                  *.2 2 1 2 1 2 1 2 1 1 1 2 1 2 1 2 1 1 2 2 y l.                      ",
"                M.n 1 1 1 1 1 1 1 1 1 1 1 1 1 1 1 1 1 1 1 1 2 Q                       ",
"                k.y 1 > > 1 > 1 1 > 1 1 1 > > > > 1 1 1 > 1 1 n N.                    ",
"                ( 5 > > > > > > > > > > > > > > > > ; > > > 1 y c.                    ",
"                T 1 ; ; ; > > ; ; ; > ; > ; ; > > > ; ; ; > ; 5 g.                    ",
"              C.L > ; : : : : ; ; ; : ; : ; : ; : ; : ; ; ; ; < (                     ",
"              M.g , - : : - ; : : ; : : - - - : O : : - - - : < (                     ",
"              V.x : O - O O O O O O O O - O O : O O - O O O O < (                     ",
"                Y ; O O O O O O O O O O O O O O O O O O - O O < g.                    ",
"                / , o O O O o o O + o O O o O o o o O O o o O 9 x.                    ",
"                x.9 o o o o o O o o o o o o o o o o o o o o : K S.                    ",
"                S.P + o o X o o X o o o o o o o o o o o o o , i.                      ",
"                  d.3 o o X o X o X o o X X X X X X o X o o f V.                      ",
"                    E # X X X X . . . X X X X X X X X X o 3 d.                        ",
"                    m.K + X . . X X . X X X X X . X X X , ~                           ",
"                      n.C + o . . . . . . . . . . . o , ~ ~.                          ",
"                        V.! , o X . . . . . . . X + 0 i.                              ",
"                            z.U 7 + o X X @ o , 0 ! n.                                ",
"                                v.f.! A A A ~ s.m.                                    ",
"                                                                                      ",
"                                                                                      ",
"                                                                                      ",
"                                              9.= * * * q.                            ",
"                  t.0.9.0.0.e.t.0.0.9.G * $ @ X X X X . X @ D                         ",
"                D , + + + + + + + + + o o o o o o o + o + o + S H F B M % % % & N 0.  ",
"                  u., O : : + : : : : ; : : : + : : + : : O O ; ; > , 3 6 8 M B H     ",
"              y.>.Z 1 > < > > 1 < > 1 > < > < > > > > < < > V J w.r.                  ",
"      s.R l f y 2 2 5 4 2 2 2 2 2 w 4 2 2 2 4 2 2 4 4 4 4 4 j.                        ",
"  <.h e e w e r e w e t s x R ~ 1.p.1.~ x u e t r r r r r r t i I h.                  ",
"    <.W I z n n c I W a.                  v.^ c v v s s v n c ( h.                    ",
"                                                                                      "
};
