/* XPM */
static char *_0492d78075c4d6f8dbf54d048bcf3e32pfP3FwiPOdNisVX[] = {
/* columns rows colors chars-per-pixel */
"60 60 145 2 ",
"   c #000000",
".  c #0A0400",
"X  c #01060A",
"o  c #04080A",
"O  c #0A0A0A",
"+  c #120700",
"@  c #150A03",
"#  c #190B02",
"$  c #110C09",
"%  c #1A0F09",
"&  c #1D1009",
"*  c #220D01",
"=  c #271000",
"-  c #2A1000",
";  c #221209",
":  c #341400",
">  c #3D1700",
",  c #361807",
"<  c #341808",
"1  c #3F1B08",
"2  c #451A00",
"3  c #4C1C00",
"4  c #411C08",
"5  c #511E00",
"6  c #562102",
"7  c #5B2201",
"8  c #622402",
"9  c #692700",
"0  c #6D2800",
"q  c #742B00",
"w  c #7B2D00",
"e  c #802F00",
"r  c #833000",
"t  c #8B3301",
"y  c #943600",
"u  c #993700",
"i  c #9C3901",
"p  c #A33A00",
"a  c #AC3D00",
"s  c #B03F00",
"d  c #B03E00",
"f  c #B23F00",
"g  c #B33F00",
"h  c #B23F00",
"j  c #B74100",
"k  c #B74200",
"l  c #B54102",
"z  c #B64102",
"x  c #B64100",
"c  c #B94100",
"v  c #BA4100",
"b  c #BB4100",
"n  c #BF4300",
"m  c #B94503",
"M  c #BB4200",
"N  c #C04300",
"B  c #C14400",
"V  c #C24400",
"C  c #C34400",
"Z  c #C24500",
"A  c #C34500",
"S  c #C34601",
"D  c #C04502",
"F  c #C44500",
"G  c #C54500",
"H  c #C74500",
"J  c #C44601",
"K  c #C74600",
"L  c #C74601",
"P  c #C34400",
"I  c #C84600",
"U  c #C94600",
"Y  c #C94700",
"T  c #C94701",
"R  c #CA4700",
"E  c #CB4700",
"W  c #CA4701",
"Q  c #C94600",
"!  c #CD4802",
"~  c #CC4902",
"^  c #CD4902",
"/  c #CC4901",
"(  c #D04900",
")  c #D14900",
"_  c #D34900",
"`  c #D24A00",
"'  c #D34A00",
"]  c #D44A00",
"[  c #D54A00",
"{  c #D44B00",
"}  c #D54B00",
"|  c #D64B00",
" . c #D74B00",
".. c #D74C00",
"X. c #D44A00",
"o. c #D94C00",
"O. c #D94D00",
"+. c #DA4C00",
"@. c #DA4D00",
"#. c #DB4D00",
"$. c #DD4D00",
"%. c #DC4E00",
"&. c #DD4E00",
"*. c #DD4E01",
"=. c #DE4E00",
"-. c #DF4F00",
";. c #DD4E00",
":. c #E25000",
">. c #E35000",
",. c #E45000",
"<. c #E55000",
"1. c #E45100",
"2. c #E55100",
"3. c #E65100",
"4. c #E75100",
"5. c #E75200",
"6. c #E55100",
"7. c #E85200",
"8. c #E95200",
"9. c #EB5300",
"0. c #EC5300",
"q. c #ED5300",
"w. c #EF5300",
"e. c #EF5400",
"r. c #EC5300",
"t. c #F15500",
"y. c #F25500",
"u. c #F35500",
"i. c #F45600",
"p. c #F55600",
"a. c #F65600",
"s. c #F45600",
"d. c #F85700",
"f. c #F95700",
"g. c #F55800",
"h. c #FA5800",
"j. c #FB5800",
"k. c #FD5800",
"l. c #FD5900",
"z. c #FE5900",
"x. c #FF5900",
"c. c #FF5A00",
"v. c #FF5B00",
"b. c #FF5F00",
"n. c #FE5900",
/* pixels */
"O O O O O O O O O O O O O O O O O O O O O O o r ! d a u y e w 5 3 5 3 > : = - - # O O O O O O O O O O O O O O O O O O O ",
"O O O O O O O O O O O O O O O O O O o o o o X r ! d a u y e w 5 3 5 3 > : = = - # O O O O O O O O O O O O O O O O O O O ",
"O O O O O O O O O O O O O O O O o 4 i y t r w a D g a u u r e q 9 5 3 > > : : = * * $ O O O O O O O O O O O O O O O O O ",
"O O O O O O O O O O O O O O O O X 8 d.1.*.' W C D g a u y r e r w 3 3 > > 2 : * - - $ O O O O O O O O O O O O O O O O O ",
"O O O O O O O O O O O O O O o 4 m ~ 8.*. .! D C A a a u y t t r w 3 3 3 2 > > : : = % O O O O O O O O O O O O O O O O O ",
"O O O O O O O O O O O O O O o 6 b.h.8.*.[ W D D A l a u y u u r w 5 5 5 3 > > 2 : - @ O O O O O O O O O O O O O O O O O ",
"O O O O O O O O O O o ; l n ~ =.v.i.1.*.[ [ ' W A d a a p y y r e w 0 5 3 3 2 : : = * % O O O O O O O O O O O O O O O O ",
"O O O O O O O O O O O < 1.y.x.x.v.i.1.*.[  .[ W A d a d a y y r r r q 5 5 5 3 2 : - : : % $ $ $ O O O O O O O O O O O O ",
"O O O O O O O O O % d J 2.0.x.x.x.a.2.2.2.o.[ W A n n d a y y e r r e t y p p i a d a d a a a p ; O O o O O O O O O O O ",
"O O O O O O O O O % W =.2.0.x.k.x.a.2.7.8.:.} R J N A d a y y e r e r y i a a a g C C U J J J A , % & # O O O O O O O O ",
"O O O O O O O O o % J =.2.2.7.q.x.x.x.h.x.q.:.=.[ W A d a t r r e r e y y y p a d a N C N N _ [ W W ! a O O O O O O O O ",
"O O O O O O O O ; < W o.2.2.2.q.x.h.h.x.x.i.2._ W j d p i w w w w w e y y y i a a a g C J J _ o.o.o.=.J < ; O O O O O O ",
"O O O O O O O $ p A [ [ [ o.2.2.2.2.2.a.x.x.x.l e 8 5 5 5 5 5 5 5 5 5 t t y y y p a g C ~ } o.[ :.2.2.2.2.l O O O O O O ",
"O O O O O O O $ a W _ _  .o.:.:.:.2.2.2.>.#.} u q 5 3 3 3 3 3 3 3 3 5 e w t t y p a g C _ } o.o.4.7.7.0.i.D O O O O O O ",
"O O O O O O O $ a A N J [ } } } } =.q.c e 9 3 3 5 2 2 > > 2 > > 2 > 2 3 5 3 0 u p a n C _ [ :.7.2.2.k.x.x.^ X o O O O O ",
"O O O O O O $ % a A N J _ _ _ _ } _ R i 0 7 3 3 3 : : : : : : : : : : 3 2 3 8 w u a n W _  .:.2.7.t.k.x.x.=.6 4 O O O O ",
"O O O O O O * - a J N A N N N W o.j r 9 3 2 : 2 > - = = = - - - = = : 2 > : 2 3 w d E +.} } :.2.x.x.x.v.v.v.b.n X o O O ",
"O O $ % @ % = : a A n c n c c n R p 9 7 3 > : : : * # # # # # # # # # : : : > 3 9 t p g _ =.2.2.f.x.s.s.s.s.g.! 8 4 O O ",
"O O * - = - = - d C a a a a a d d t 3 2 > : - - - .                 . - - = : > 2 5 0 e R q.2.2.f.v.8.<.<.1.4.8.d.i X O ",
"% % * - - : : : a g a a p p p y e 9 2 > : * + + # .                 . + # + * : 2 3 5 9 i c 2.i.x.x.8.8.*.*.*.*.1.y X O ",
"= - - - : 2 > 2 p d a a y y u e 3 2 > : - +                                 + - : : 2 3 0 e :.x.x.x.4.<.[ [  .[ *.t o O ",
"= = - : : > 2 3 i a p i u t 0 8 2 > : * + .                                 . + * : 2 2 5 9 =.x.y.w.*.*. ._ W W ' r o O ",
"- - : 2 > > 3 5 p a y y u e 3 2 > : - +                                         + - : : 3 3  .x.4.4. .[ +._ D D ~ w X X ",
": : > > 2 3 3 5 y i y y t w 3 3 > : - +                                         + - : 2 3 5 u d [ #.W W L W D D D a r r ",
"> > : > 3 5 5 5 t y y y r q 5 3 > : = +                                         + = : > 3 5 q e W [ J N C J N C A A W W ",
"3 3 3 3 5 3 0 q r t t e 7 6 2 > : * . .                                         . . * : : 2 5 7 g W C N g d d g d l d d ",
"5 5 5 5 5 5 w e r e e w 5 3 > : * #                                                 # = : 2 3 5 d J N N a a a a a a a a ",
"3 3 9 w w w e e r e e w 5 3 > : = #                                                 # - : > 3 5 p d d d a a u u u u u u ",
"5 5 q r e e e e e e e w 3 3 2 : - #                                                 # = : > 3 5 i a a a a a y y y y y y ",
"w w e r y y y y y y e w 5 3 2 : - #                                                 # - : 2 3 5 w t y y y u y t e t r r ",
"r t e r t y u u y y t w 5 3 > : = #                                                 # = : > 3 5 w e y y y y y t e e w e ",
"y y y y y y a a a a a i 5 3 2 : - #                                                 # - : 2 3 5 w e e r r r r r e q 5 5 ",
"y u u u u u a a d d d p 5 3 > : = #                                                 # = : > 3 5 w e e r r e w q w 9 3 5 ",
"a a a a a a a a N N A d 5 3 2 : = #                                                 # - : 2 3 5 w e e e r w 5 5 5 5 3 5 ",
"d d d l g d g g N N W j 8 5 2 : - * . .                                         . . * - : 2 5 8 e t e e w 0 5 3 3 3 3 3 ",
"W W A A C N C N A A [ W e q 3 3 2 : = +                                         + - : > 3 3 w r y y y t 5 3 5 3 > > > > ",
"r r a D D J J W W R o.[ d u 3 3 > : - #                                         + = : > 3 5 w t y y i y 5 5 3 2 > : : : ",
"X X w W D D [  .} } 2.7.x.=.3 2 : : - +                                         # = : > 2 3 e y y y a p 5 3 : 2 2 : = = ",
"O o r ' ! W [ [ =.=.q.i.x.=.9 7 2 > : * + .                                 . + * : > 2 8 0 y y i p a i 3 3 > : : : = - ",
"O o t *.[  .[ [ 2.7.x.x.x.:.e 0 3 3 > : - .                                 . - : > 2 3 e u y y a d a i 2 > 2 : = = = - ",
"O X y 8.>.*.*.*.2.7.x.h.i.2.c i 9 7 3 > : * + # + .                 . # + + * : > 2 9 e y p p p a a g a : - : - - * % % ",
"O X i f.4.4.8.1.2.7.x.h.2.2.q.W e 0 3 2 : : = = - .                 . - - = : > 2 3 t g d a a a a d U d - - - - - % O O ",
"O o 4 8 ! a.s.s.a.a.x.h.2.2.=._ g p t 9 3 > : : : * # # # # # # # # # : : : > 3 5 0 p ! N g g g g N J a : * % @ % $ O O ",
"O O o X m b.v.v.x.x.x.x.2.:.} [ #.U g e 3 2 : 2 : : = - - - - - = = : > > > 2 3 0 e g =.E C C U C C C a : * O O O O O O ",
"O O O O 4 6 *.v.x.k.t.0.2.:. ._ W n a y w 8 2 3 3 : : : : : : : : : : 3 3 2 7 0 i W ) [ [ ) ) ! C C C a % $ O O O O O O ",
"O O O O X o ^ v.x.k.2.2.7.:.[ _ A c a p u 0 3 5 5 2 > 2 > > 2 > 2 > 2 5 3 3 9 e c t.#.[ [  . .[ C C U a $ O O O O O O O ",
"O O O O O O A i.0.7.7.2.o.o.} _ N c a p y t r w w 5 3 3 3 3 3 3 3 3 5 q y } =.:.2.2.>.>.>.>. . .) ) L a $ O O O O O O O ",
"O O O O o O j 2.2.2.2.2.[ o.} ~ A c a p y u u t e 8 3 5 5 5 5 5 5 5 8 e l x.x.x.a.2.4.4.4.4.#. . .[ C p $ O O O O O O O ",
"O O O O O O ; < D *. .[ [ ' J J C g a a p i y y y w w w w q w i p a c W _ 7.i.x.k.f.k.f.w.<.<.>.*.L < ; O O O O O O O O ",
"O O O O O O O O a ! ! !  .! C D C N d g d p y y y t r r r r t a g C W  .o.2.0.x.v.v.k.v.w.7.7.7.*.L % o O O O O O O O O ",
"O O O O O O O O % & & < J L J J C C C g a a d i y r r r r t y a d N C J ! } =.7.7.7.a.k.k.k.w.,.*.~ % o O O O O O O O O ",
"O O O O O O O O O O o ; p a a a d d d p i p p y t e r e r y u a d N N N W [ =.2.,.,.a.k.v.k.7.,.D a % O O O O O O O O O ",
"O O O O O O O O O O O O $ $ $ & - : - : 2 3 5 5 5 q r r e y u a d a g N W [  .[ *.7.a.v.v.v.y.,.< O O O O O O O O O O O ",
"O O O O O O O O O O O O O O O $ * * - : > 2 3 3 5 0 w e r y y p a a d A J [ [ [ *.7.a.v.*.^ D l ; O O O O O O O O O O $ ",
"O O O O O O O O O O O O O O O O O @ - : > > > 3 5 3 3 w r y y y y a d J N A W [ *.,.h.b.6 o O O O O O O O O O O O O O O ",
"O O O O O O O O O O O O O O O O O @ - - > > > 2 3 3 5 w r y y y u a d N A A W o.*.7.~ m 4 o O O O O O O O O O O O O O O ",
"O O O O O O O O O O O O O O O O O @ - - - : 2 2 > 3 3 w e e t y u a d A D W ' *.8.i.8 X O O O O O O O O O O O O O O O O ",
"O O O O O O O O O O O O O O O O O $ # ; - - : : > 3 5 9 q e e y u a d J a w r t y i 4 o O O O O O O O O O O O O O O O O ",
"O O O O O O O O O O O O O O O O O O O % - - = : > 3 5 3 5 w e y u a d W r X o o o X o O O O O O O O O O O O O O O O O O ",
"O O O O O O O O O O O O O O O O O O O % - - = : > 3 5 5 5 w e y u a d W r o O O O O O O O O O O O O O O O O O O O O O O "
};
