/* XPM */
static char *_feac5463ef240add15eca1523994d3aCc6t9UDRqooIkI39[] = {
/* columns rows colors chars-per-pixel */
"60 60 135 2 ",
"   c #292827",
".  c #2E2D2B",
"X  c #302F2D",
"o  c #33312F",
"O  c #353431",
"+  c #393733",
"@  c #3C3A36",
"#  c #3F3E39",
"$  c #403D37",
"%  c #413E39",
"&  c #46443D",
"*  c #49453E",
"=  c #4E4C43",
"-  c #514E45",
";  c #545047",
":  c #565248",
">  c #5A564B",
",  c #5D594D",
"<  c #615C4F",
"1  c #635E51",
"2  c #656152",
"3  c #6E6757",
"4  c #6E6756",
"5  c #6D6656",
"6  c #6B6555",
"7  c #6E6856",
"8  c #6E6857",
"9  c #6F6857",
"0  c #6F6957",
"q  c #6F6957",
"w  c #696758",
"e  c #6B6A5A",
"r  c #6C6858",
"t  c #6F6958",
"y  c #6E6A59",
"u  c #6F6E5D",
"i  c #6E6B5C",
"p  c #706957",
"a  c #706A57",
"s  c #706958",
"d  c #706A58",
"f  c #716A58",
"g  c #716A59",
"h  c #726A58",
"j  c #726B58",
"k  c #726A59",
"l  c #726B59",
"z  c #736B59",
"x  c #736C59",
"c  c #716C5A",
"v  c #726C5A",
"b  c #736C5A",
"n  c #746C5A",
"m  c #746D5A",
"M  c #746D5B",
"N  c #756D5B",
"B  c #756E5B",
"V  c #766E5B",
"C  c #716D5C",
"Z  c #706D5D",
"A  c #706F5E",
"S  c #746E5C",
"D  c #756E5C",
"F  c #756F5C",
"G  c #766E5C",
"H  c #776E5C",
"J  c #726B59",
"K  c #786F5D",
"L  c #76705D",
"P  c #74705E",
"I  c #75705E",
"U  c #76715F",
"Y  c #77725F",
"T  c #77715F",
"R  c #79735F",
"E  c #79735F",
"W  c #757462",
"Q  c #767563",
"!  c #767361",
"~  c #787360",
"^  c #797360",
"/  c #7A7561",
"(  c #7B7561",
")  c #7B7661",
"_  c #7B7562",
"`  c #7B7662",
"'  c #7A7763",
"]  c #7C7662",
"[  c #7C7663",
"{  c #7C7763",
"}  c #7A7561",
"|  c #7C7965",
" . c #7E7965",
".. c #7D7C68",
"X. c #7F7D68",
"o. c #7F7D68",
"O. c #807E6A",
"+. c #817F6A",
"@. c #817F6B",
"#. c #827E6A",
"$. c #82806B",
"%. c #83816B",
"&. c #83816C",
"*. c #84826C",
"=. c #85826D",
"-. c #84836D",
";. c #85836D",
":. c #86836D",
">. c #85836E",
",. c #85846E",
"<. c #86846E",
"1. c #87846E",
"2. c #87856E",
"3. c #87856F",
"4. c #84826D",
"5. c #88856F",
"6. c #89856F",
"7. c #89866F",
"8. c #89856F",
"9. c #878570",
"0. c #898770",
"q. c #898770",
"w. c #8B8972",
"e. c #8C8A73",
"r. c #8D8B73",
"t. c #8D8B74",
"y. c #8D8C74",
"u. c #8E8C74",
"i. c #8E8C75",
"p. c #8F8D75",
"a. c #8D8B74",
"s. c #908E76",
"d. c #918F76",
"f. c #918F77",
"g. c #918F77",
/* pixels */
"e.e.t.w.t.w.t.w.t.e.s.1   . X Q s.e.e.e.e.e.e.e.e.e.e.w.# O >.5.d ( t.t.e.e.t.e.e.t.O.X # 9 ( e.e.e.e.e.e.e.e.e.s.u   . ",
"e.e.t.u.t.t.t.t.t.t.s.1   .   W s.t.t.t.t.t.t.t.e.s.u.e.# O >.5.d } s.t.t.t.t.t.t.s.O.X # n ( s.e.s.t.t.u.u.u.u.s.G . X ",
"e.t.Z 1 Y ( } } } } ( t , #   : 2 E ( } } ( Z 1 2 2 2 1 + O 1.>.> , 1 t ( r 1 Y ( 2 1 , < d E ( } ( 6 1 2 2 2 2 1 :   X ",
"e.u.1 = 6 d d d n d d d K =   = - 5 n d p n 1 - - = = = O o >.O.- - = < n , = 2 d - - n n n d d p n > = = = = = - % X X ",
"t.u.2 - 5 x d d d n d n d > * < r d d n d n d 5 > = - - O . # & - : 9 9 n 5 5 d n 5 5 d n d n d d n 5 5 6 6 ; - - * X X ",
"w.u.2 - 5 x d n n d n d n , - 6 n d n d n d d n < ; - - O . o O - , n n d n n d d n n n d n d n n d n n x t : ; - & X X ",
"t.u.^ 7 n d n d d n d x n , - 6 n n d n d n d n n x > - o o 2 5 d d n d n d d n n d n d n d n d d n d d d x d 6 - & X   ",
"1.9.E n d n d n n d n d x < : 2 7 d n d n d d 5 5 7 > - O o j Y 5 9 d n d n n d d n d n d n d n n d G d x d x 6 - & X X ",
"d d n d d n d n d n d n d n d > - 7 n x p n < = - - - - o O 1.%.= > x d x d d n n d n d n d n d d n d n d n n 5 - & X X ",
"} ( G n n d n d n d n d n d n < > d d d p 6 < - - - - - O O 1.-., < x x d x n d d n d n d n d n n d n d n d 6 1 - &   X ",
"t.u.} d d n d n d n d n d n d n n x n n 6 = - - = = - - O O 1.1.n x x d Z n d n n d n d n d n d d n d n n 9 ; - - & X X ",
"e.t.} d n d n d n d n d n d n d x d d d 6 - - - > < : - O O 1.5.d x d x n d n d d n d n d n d n n d n d d s ; - - &   X ",
"e.t.} d n d d n d n d n d n d n d n d n 2 - - - < Y , = O O -.5.n n x x n d n d n d n d n d n d d n d n d d ; - : & X X ",
"e.u.r , 5 n n d n d n d n d n d n d d x t 1 2 1 5 x > - O O 1.>.> < n x d n d n d n d n d n d n n d n d d d - - - & X   ",
"e.u.1 = 5 n d n d n d n d n d n n d n d x G x x x x > = O O 1.%.- > n d n d n d n d n d n d n d d n d n n d : - - * X X ",
"e.t.Y 2 d n n d n d n d n d n d d n d n d x d x 1 > ; = O O 1.%.: * # : n n d n d n d n d n d n n d n d , : - - - * X X ",
"w.t.( d d n d n n d n d d n d n n d n d n d n n < = - - O O -.X.- &   = n n n d n d n d n d n d n d n d : - - - ; & . X ",
"G G n n n d n d d n d n n d n d d n d n d n d n < = - - O . + + X & 5 5 n p d n d n d n d n d n d n d n : = = - - & . . ",
"G Y n d d n d n n d d d d n d n d d n d d d n n < : - - O X O O O * n n x d n d n d n d n d n d n d n d > : : : ; & . . ",
"w.w.} d n d x d n n n n n d n d n x x G n n d d x x > = o o 6 d 7 d n d d x d n d n d n d n d n d n d d d d x 5 - & . . ",
"w.t.} d n d n d 6 6 2 5 d n d n d 5 6 2 5 n d n 5 6 > - O o G E n x d n d n d n n d n d n d n d n n d n x d 5 2 : & . . ",
"w.u.} d d x n 7 - - - < Z x n d d : = = > n n d , = - - O O 1.5.n n n d n d n d d n d x x n n n n d n d d p : = - & . . ",
"e.t.} d n p 2 < - - - < x d x x d : - - : 2 6 n < = - - O O 1.>.2 2 d n d n d n n x d n d 1 2 < 5 d d n p p - - - & . . ",
"e.u.} x d p - - - - - , x x x p d : - - - = , K 1 = - - O O 1.%.= > G d n d n d d n n n 6 - - = 1 n n d n p : - : & . X ",
"e.u.t , t d ; - - - - < n 2 , 5 x : - - - - : 1 > - & # . + 1.-.; , d d x d d x d 1 < < , - - - 1 n d n 1 > - - # + . . ",
"e.u.1 = 5 d ; - - - = < n , = 6 x : = = - - - = = - + . . O >.O.= > Z x x G n d x ; = = = - - = 1 n n d : - - = . . . X ",
"e.u.2 = > > - - - - - : , : - > > ; - - - - - = - ; + . . O 1.-.; ; , > > > > > > ; - - - - - - : > > > - - @ O . X X . ",
"w.e.2 = - = - - - - - - = - - - = = - - - - - - - - + . . O >.X.; = = = - - - - - = - - - - - = - - - - - - X X . X . . ",
"% % + o O O O O O o O o O O O O O O O O O O O O O O . . . X # # O O O O O O O O O O O O O O O O O o O o X o X   . . . X ",
"O O O O O O O o o + + O O O O O O O X O O O O O O O + O X . O O O O O O o O O O O O O O O O O O O + O O O + + + + o . . ",
"-.-.>.>.>.%.5 x >.>.>.>.>.>.>.>.-.; ; -.>.>.-.9.1.1.>.-.# O ..>.1.1.9.} 6 ' 1.1.1.1.1.-.-.1.1.1.1.1.>.>.1.5.5.>.5.e . X ",
"t.t.>.%.5.>.Z Y 5.5.5.5.5.>.-.@.X., , >.0.9.1.X.-.@.%.-.+ O 1.w.%.O.-.W 6 ' -.1.1.5.5.9.1.%.>.5.5.5.>.O.-.#.%.O.>.2 . . ",
"w.u.2 - 5 x d n d n d n n , = - - 5 n d n n 2 - - - - - O O 1.$.; - - = - - = 6 x d n d 5 = , d x n > - - - - ; ; & . . ",
"e.u.2 = 5 n x d n d n d x 1 > , , d d n d x 2 > : - - - O O 1.$.- ; > , > , > 5 n Z d n 5 > 1 G d n < > > > - - - & . . ",
"t.u.1 = 5 d d n d n d n d G d x n x n d d n d G < = - - O O 1.%.= > x x G d G d d n d n d n d n d n n n x 7 ; - - * . . ",
"t.y.t , p n n d n d n d d d x d d n d n n d n n < - - - o O 1.>., 2 x u d n d n n d n d n d n d x d x d x d < , ; & . . ",
"t.t.( n d n d n n d n d n d n d n d n d n d n n , = - - o O 1.1.n x n d n d n d d n d n d n d n d n d n d x n 7 - & . . ",
"w.t.( d n d n d d n d n d n d n d n d n d n d d 6 1 : - O O 1.5.x x d n d n d n n d n d n d n d n d n d x j n 5 - * . . ",
"t.e.} d d n d n n d n d n d n d n d n d n d d n x n > - o + 1.7.x d d d n d n d d n d n d n d n d n d n d x p 5 - & . X ",
"Y W n d n d n d d n d n d n d n d n d n d n n d j n > - O o P n : 1 G d d n d n n d n d n d n d n d n d n d n 5 : & . . ",
"d n d n d n d n n d n d n d n d d n d n d n d n n d > = O o 5 5 = > G d d n d n d n d n d n d n n d n d n d p 5 - & . X ",
"0.0.E h n d n d d n d n d n d n n d n d n d n d d n > - O + #.#.= , d n n d n d n d n d n d n d d n d n d n n 5 - & . X ",
"e.s.W 5 d d d n n d n d n d n d d n d n d n d n n n > - O O 5.#.: , n d d n d n d n d n d n d n n d n d n d 9 6 - *   X ",
"e.e.1 - 5 n n d d n d n d n d n n d n d n d n d n d > - O O 5.7.d d n d n d n d n d n d n d n d d n d n n p : - - * . . ",
"e.e.6 : t n d n n d n d n d n d d n d n d n d n d n , - O O #.#.d n d n d n d n d n d n d n d n n d n d 6 6 - - - * X X ",
"s.s.( d d n n d d n d n d n d n n d n d n d n d n n > = O o 6 p n d n d n d n d n d n d n d n d d n d n - - - - - * . X ",
"W W G d n d n d n d n d n d n d d n d n d n d n 6 1 : - O o E ( d n d n d n d n d n d n d n d n n d n h : - - - - & .   ",
"- - 2 x d n d n d n d n d n d n n d n d n d d x , = - - O O 5.q.n d n d n d n d n d n d n d n d d n p h : - - - - & X X ",
"% # < n n d n d d n d n d n d n d n d n d n d n 6 1 : - o O E  .d n d n d n d n d n d n d n d n d n d n 2 < 1 < - * X . ",
"    , G d n d n n d n d n d n d n d n d n d n d n n > - O o 6 p n d n d n d d n n d n d n d n d n d n d n n n 5 - * . X ",
"i u C d n d n d d n d n d n d n d n d n d x d n 1 , : - o o  .O.d n d n n d n 1 > 9 n x d n d n d n d n d x x 5 - * . . ",
"t.f.} d d n d n n d n d n d n d n d n d n d x n , = - - O + 5.0.n d n d d n d : - 9 d d n d n d n d n d x d x 5 - & . . ",
"t.u.2 : 5 n d n d n d n n d d x n d n d d n 6 : - - - - o + >.%.: < n n n d n & o 5 n x n d n d n d n d d d > : - & . X ",
"t.u.2 = 6 d 9 s n d n p d d n d d n d p d d 1 = - - - - O O 0.>.- > d p d d d # X 1 p p d n d d d n d n d 5 - - - & . . ",
"t.t.1 = : - - > d n n 1 - 6 Z n n n 5 : - : - - - - - - O O >.5.d 6 - - - 6 n % . - : - , d n x n n n p > - - - ; * . . ",
"t.t.1 - - - - : 5 5 5 , = < 6 6 5 5 6 - - - - - = * = = o O >.5.5 1 - - - < 9 % o * = - : 5 5 5 5 6 5 5 : - - - * & . X ",
"u.f.2 - ; - ; ; - ; - - - ; - = - - - - - - - - % X X X   + 7.>.: - - - - - : - - O o - - - ; - : - - - - - : * . . . X ",
"u Z ; & & & & & & & & = & & = & * & * * & & * * #   X . X o t w & & & * & & & & & o X & & & & & & & & * & & & & . X . . ",
"  . . . . . . . . .   . . . . .   . . . . . . X . X . . X X   X . . . . . . . . . X . . . . . . . . . . . . . . . X X . ",
". . . . . X . . . . . . . . . . X . . X . . X X X . . X X X X   . X . . . . . . . . . . X . . . . X . . . . . . . . X . "
};
