/* XPM */
static char *d616e1f91bb44070ea14531b0c26cb44l2WlUnSWakUAGRZ2[] = {
/* columns rows colors chars-per-pixel */
"60 60 149 2 ",
"   c None",
".  c black",
"X  c #020202",
"o  c gray1",
"O  c #0F0000",
"+  c #090909",
"@  c #0B0B0B",
"#  c #180000",
"$  c gray7",
"%  c #131313",
"&  c gray9",
"*  c #1E1E1E",
"=  c gray12",
"-  c #311E1E",
";  c gray13",
":  c gray17",
">  c #2F2F2F",
",  c gray19",
"<  c gray21",
"1  c #393939",
"2  c #3A3A3A",
"3  c #444444",
"4  c gray28",
"5  c #494949",
"6  c #4E4E4E",
"7  c gray31",
"8  c #505050",
"9  c gray36",
"0  c #5D5D5D",
"q  c gray37",
"w  c #5F5F5F",
"e  c #606060",
"r  c gray38",
"t  c #626262",
"y  c #646464",
"u  c gray40",
"i  c #686868",
"p  c DimGray",
"a  c #777777",
"s  c gray47",
"d  c #7B7B7B",
"f  c #7C7C7C",
"g  c gray50",
"h  c #EC0000",
"j  c #EE0202",
"k  c #F00000",
"l  c red",
"z  c #FF0404",
"x  c #FF0808",
"c  c #FF0909",
"v  c #FE1212",
"b  c #FF1313",
"n  c #F33A3A",
"m  c #FF3C3C",
"M  c #FF4444",
"N  c #FF5B5B",
"B  c #FF5C5C",
"V  c #FF6363",
"C  c #FF6464",
"Z  c #FF6868",
"A  c #FF6F6F",
"S  c #FF7575",
"D  c #FF7777",
"F  c #808080",
"G  c #818181",
"H  c gray51",
"J  c #868686",
"K  c #888888",
"L  c #898989",
"P  c gray54",
"I  c #8B8B8B",
"U  c #8D8D8D",
"Y  c #8E8E8E",
"T  c gray56",
"R  c #939393",
"E  c #9A9A9A",
"W  c #9B9B9B",
"Q  c gray61",
"!  c gray64",
"~  c #A4A4A4",
"^  c gray65",
"/  c #ACACAC",
"(  c gray68",
")  c gray71",
"_  c #B7B7B7",
"`  c gray",
"'  c gray75",
"]  c #FF9797",
"[  c #FF9C9C",
"{  c #FFAFAF",
"}  c #FFB0B0",
"|  c #FFB6B6",
" . c #FFB7B7",
".. c #C0C0C0",
"X. c #C3C3C3",
"o. c #C5C5C5",
"O. c #C6C6C6",
"+. c gray78",
"@. c gray79",
"#. c #CACACA",
"$. c gray82",
"%. c LightGray",
"&. c #D3D6D6",
"*. c #D5D5D5",
"=. c gray84",
"-. c #D7D7D7",
";. c gray85",
":. c #DADADA",
">. c #DDDDDD",
",. c gray87",
"<. c #DFDFDF",
"1. c #FFC2C2",
"2. c #FFC5C5",
"3. c #FFCBCB",
"4. c #FFDEDE",
"5. c #E2E2E2",
"6. c gray89",
"7. c gray90",
"8. c #E6E6E6",
"9. c gray91",
"0. c #E9E9E9",
"q. c #EAEAEA",
"w. c gray92",
"e. c #ECECEC",
"r. c gray93",
"t. c #EEEEEE",
"y. c #EFEFEF",
"u. c #F7E4E4",
"i. c #FFECEC",
"p. c #FFEDED",
"a. c gray94",
"s. c #F1F1F1",
"d. c gray95",
"f. c #F3F3F3",
"g. c #F4F4F4",
"h. c gray96",
"j. c #F6F6F6",
"k. c gray97",
"l. c #FFF3F3",
"z. c #FFF7F7",
"x. c #F8F8F8",
"c. c #F9F9F9",
"v. c gray98",
"b. c #FBFBFB",
"n. c #FFF9F9",
"m. c gray99",
"M. c #FDFDFD",
"N. c #FEFEFE",
"B. c white",
/* pixels */
"                      . . . . . .                                                                                       ",
"                      . . . . . .                                                                                       ",
"                      @ @ @ @ @ @                                                                                       ",
"                  . . ` 5.5.5.5.G . .                                                                                   ",
"                . . o -.B.B.B.B.I . .                                                                                   ",
"                . . o -.B.B.B.B.I . .                                                                                   ",
"                . . . -.B.B.B.B.J . .                                                                                   ",
"                . . . #.B.B.B.B.I . .                                                                                   ",
"        . . . . q I J q.B.B.B.B.I . .                                                                                   ",
"      . . . . . U B.c.B.B.B.B.B.I . .                                                                                   ",
"      . o o o . J B.d.c.B.B.B.B.J . .                                                                                   ",
". . @ _ @.O.@.O.>.d.e.B.B.B.B.B.q.-.%.1 . .                                                                             ",
". . @ ;.c.h.h.h.d.d.d.B.B.B.B.B.B.B.B.1 . .                                                                             ",
". . @ -.h.d.d.d.d.e.e.B.B.B.B.B.B.B.B.r > >                                                                             ",
". . @ 5.B.c.d.e.d.d.d.c.B.B.B.B.B.B.B.B.B.>.@ . .                                                                       ",
". . @ e.B.B.c.B.c.c.c.B.B.B.B.B.B.B.B.B.B.>.. . .                                                                       ",
". . @ f J I f G F G G 9.B.B.B.B.B.B.B.B.B.e.f a q                                                                       ",
"      . . . . . . . . %.B.B.B.B.B.B.B.B.B.B.B.B.! . .                                                                   ",
"      . . . . . . . . -.B.B.B.B.B.B.B.B.B.B.B.B.W . .                                                                   ",
"                      n m m m m ] B.B.B.B.B.B.B.5._ ` 3 . .                                                             ",
"                      l l l l l S B.B.B.B.B.B.B.B.h.B.5 . .                                                             ",
"                      l l l l l Z 4.4.z.B.B.B.B.c.d.c.r = =                                                             ",
"                      l l l l l z c c 2.B.B.B.B.B.B.B.e.q.-.$ . .                                                       ",
"                      l l l l l l l l 3.B.B.B.B.B.B.B.h.d.>.@ . .                                                       ",
"                      l l l l l l l l S [ [ [ [ 1.B.B.c.h.q.p r 8                                                       ",
"                      l l l l l l l l l l l l l N B.B.B.B.B.c.B.( . .                                                   ",
"                      l l l l l l l l l l l l l V B.B.B.B.B.d.x.^ . .                                                   ",
"                      l l l     l l l l l l l l V B.B.B.B.B.d.d.;.^ ( 6 . .                                             ",
"                      l l l       l l l l l l l C B.B.B.B.b.d.e.d.c.B.q . .                                             ",
"                      l l l       l l l l l l l N i.i.n.B.B.d.d.d.d.c.p $ $                                             ",
"                      l l l           l l l l l c v v | B.B.B.B.c.e.d.8.5.-.= . .                                       ",
"                      l l l           l l l l l l l l { B.B.B.B.B.e.e.d.d.q.& . .                                       ",
"                      l l l           l l l l l l l l } B.B.B.B.B.d.h.d.d.q.r 6 5                                       ",
"                      l l l                 l l l l l } B.B.B.B.B.B.B.h.e.d.B.B.@.. .                                   ",
"                      l l l                 l l l l l  .B.B.B.B.B.B.B.h.e.d.B.B.... .                                   ",
"                                                l l l M V A l.B.B.B.B.B.c.c.B.B.q.W Q q . .                             ",
"                                                  l l l l c i.B.B.B.B.B.B.B.B.B.B.B.B.f . .                             ",
"                                                  l l l l b u.h.c.B.B.B.B.B.B.B.B.B.B.f @ @                             ",
"                                                      l l j - ; y B.B.B.B.B.B.B.B.B.B.e.>.>.> . .                       ",
"                                                      l l h O . 6 B.B.B.B.B.B.B.B.B.B.B.B.B.: . .                       ",
"                                                      l l k # . 3 O...8.B.B.B.B.B.B.B.B.B.B.q 1 1                       ",
"                l l l                                 l l l       . . W B.B.B.B.B.B.B.B.B.B.h.c.#.. . . . . . . .       ",
"                l l l                                 l l l       . . ! B.B.B.B.B.B.B.B.B.B.h.h.O.. . . . . . . .       ",
"                                  l l                 l l l           q a f e.B.B.B.B.B.B.B.c.c.5.G G f G G G G s @ . . ",
"                                  l l                 l l l           . . . >.B.B.B.B.B.B.B.B.B.B.c.c.B.c.c.c.B.5.@ . . ",
"                                  l l                 l l l           . . @ >.B.B.B.B.B.B.B.B.B.B.d.d.e.d.d.d.h.-.@ . . ",
"                                                      l l l                 > , r B.B.B.B.B.B.B.B.c.B.h.e.d.e.h.-.@ . . ",
"                                                      l l l                 . . 1 B.B.B.B.B.B.B.B.B.B.c.h.h.h.c.;.@ . . ",
"                                                      l l l                 . . 1 -.%.q.B.B.B.B.B.B.B.8.O.@.O.@._ @ . . ",
"                                                                                  . . I B.B.B.B.B.B.B.U . o o o .       ",
"                                                                                  . . J B.B.B.B.B.B.B.R . . . . .       ",
"                                                                                  . . I B.B.B.B.q.R I r . . . .         ",
"                                                  l l                             . . J B.B.B.B.%.. . .                 ",
"                                                  l l                             . . I B.B.B.B.%.o . .                 ",
"                            l l                                                   . . J B.B.B.B.%.. . .                 ",
"                            l l l                                                 . . I B.B.B.B.;.o . .                 ",
"                            l l                                                   . . G 5.5.5.5.` o .                   ",
"                l l l                                                                 @ @ @ @ @ @                       ",
"                l l l                                                                 . . . . . .                       ",
"                l l l                                                                 . . . . . .                       "
};
