/* XPM */
static char *_6c6e73187a348a39c346ec7093e06f1l6OhgArTETmutVDe[] = {
/* columns rows colors chars-per-pixel */
"60 59 132 2 ",
"   c #4C4F57",
".  c #4F5259",
"X  c #53555C",
"o  c #56585F",
"O  c #58595F",
"+  c #575A60",
"@  c #5B5D63",
"#  c #5D6166",
"$  c #5F6368",
"%  c #616267",
"&  c #626569",
"*  c #68676C",
"=  c #66696C",
"-  c #6A6C6E",
";  c #6D6E71",
":  c #706E73",
">  c #6F7071",
",  c #727272",
"<  c #7D7677",
"1  c #757679",
"2  c #79777B",
"3  c #777879",
"4  c #7E7E7E",
"5  c #807777",
"6  c #817C7C",
"7  c #897E7D",
"8  c #7F807F",
"9  c #80807F",
"0  c #8B807F",
"q  c #7F7E80",
"w  c #807F81",
"e  c #828182",
"r  c #8A8282",
"t  c #8C8180",
"y  c #8D8382",
"u  c #888788",
"i  c #89878A",
"p  c #888788",
"a  c #8D8B8C",
"s  c #8F8E8E",
"d  c #8C8A8B",
"f  c #918684",
"g  c #948987",
"h  c #938E8F",
"j  c #948D8E",
"k  c #968A8A",
"l  c #9A8E8C",
"z  c #9A8F8D",
"x  c #998E8C",
"c  c #9C908E",
"v  c #908D90",
"b  c #938E90",
"n  c #938E91",
"m  c #908D90",
"M  c #929090",
"N  c #929091",
"B  c #939191",
"V  c #949292",
"C  c #969295",
"Z  c #979295",
"A  c #969396",
"S  c #959294",
"D  c #999292",
"F  c #9E9391",
"G  c #989596",
"H  c #9C9594",
"J  c #989498",
"K  c #989598",
"L  c #999599",
"P  c #9A9599",
"I  c #999699",
"U  c #9C9799",
"Y  c #989498",
"T  c #9E9A9D",
"R  c #A09493",
"E  c #A09593",
"W  c #A09B9D",
"Q  c #A39C9C",
"!  c #A89D9C",
"~  c #A89E9D",
"^  c #A99F9D",
"/  c #A89E9D",
"(  c #AAA09F",
")  c #A39EA1",
"_  c #A7A2A5",
"`  c #A6A1A4",
"'  c #AAA1A0",
"]  c #ACA3A1",
"[  c #ADA3A2",
"{  c #ADA4A2",
"}  c #AEA4A2",
"|  c #AEA5A2",
" . c #AEA4A3",
".. c #A8A3A4",
"X. c #AAA6A7",
"o. c #AEA5A4",
"O. c #AEA5A5",
"+. c #AEA6A5",
"@. c #AFA6A5",
"#. c #AFA7A6",
"$. c #ADA5A4",
"%. c #ACA7A9",
"&. c #ADA7AA",
"*. c #ABA6A8",
"=. c #AEA9AC",
"-. c #AFA9AB",
";. c #B1A7A5",
":. c #B0A6A6",
">. c #B0A7A6",
",. c #B1A7A6",
"<. c #B0A7A6",
"1. c #B1A8A6",
"2. c #B1A8A7",
"3. c #B2A8A7",
"4. c #B1A8A7",
"5. c #B0A7A8",
"6. c #B2A9A8",
"7. c #B2AAA9",
"8. c #B3AAAA",
"9. c #B4ABAA",
"0. c #B4ABAB",
"q. c #B3ACAD",
"w. c #B3ADAE",
"e. c #B3ADAF",
"r. c #B2ABAB",
"t. c #B5AFB0",
"y. c #B4B0B0",
"u. c #B9B1B3",
"i. c #BAB3B3",
"p. c #BBB4B3",
"a. c #B9B3B3",
"s. c #BDB6B8",
/* pixels */
"4 6 6 8 8 8 q 8 4 4 4 q 2 + ; %.q 8 4 q 4 8 q e 4 4 8 3 & w.o.o.o.o.o.o.o.o.o.o.o.o.o.} 0 O # 4 8 4 e 4 4 4 e 4 4 e 4 e ",
"8 8 q 8 8 q 8 q e 4 9 e 3 + > X.4 q 4 8 8 q 8 4 4 e 4 & & t.o.o.o.o.o.o.o.o.o.o.o.o.o.' y O # ; 4 8 4 9 4 9 4 4 9 4 4 4 ",
"8 q 8 4 8 8 4 8 q 8 4 e 3 + & s e 4 8 4 8 4 8 4 4 9 3 @ % t.:.o.o.o.o.o.o.o.o.o.o.o.o.} t o # $ 4 q 8 4 e 4 9 4 4 4 q 4 ",
"q 8 q 8 q 8 6 q 8 4 4 e 2 + # 8 4 4 4 e 4 8 q 8 4 e 3 # & t.o.o.o.o.o.o.o.o.o.o.o.} } $.0 o # $ 3 8 4 w 4 4 4 e e 4 8 8 ",
"8 4 8 q 8 q 8 4 8 q 8 e 3 @ # e 4 4 q 8 4 8 8 q q 8 4 @ * t.O.O.o.o.o.o.;.;.| | o.o.o.$.0 o # # 4 8 q 8 4 6 8 8 8 4 8 4 ",
"q 8 q 8 q 8 4 e 4 4 8 3 = X @ q 4 9 8 q 8 4 4 q q e 3 @ & t.O.O.} } o.o.| | | | o.o.} $.t o # & 3 q 8 8 8 4 q 8 q q q 8 ",
"8 4 8 q 8 e e 4 8 e 3 & X X % e e q 8 8 8 q q q e 8 3 @ & 6.5.:.:.;.} ;.;.;.| | o.o.o.} t O o $ q q 8 4 8 8 e 8 8 8 8 e ",
"e 3 1 3 , 3 = - ; = % X X X X % - ; - - > 4 > 4 ; e 2 + + : : ; 3 3.} R ( c | F } c c x 0 o X $ 4 8 ; 4 ; ; = ; ; = ; - ",
"# @ + @ + + X X X X   X . X   X X X X X o # o # + $ # . X . . . X > > % > * > % > % % % % o X o # @ X @ X X X . o . o X ",
"i , = . * P P Y J J J A J P G A s S s J h 9 O > * = = - = & X X . . . . . . . . . . . X X X @ @ + m P P P P L L L L L 3 ",
"a 3 @ - ..u.0.0.0.0.6.q.0.0.0.0.3.9.7.9.( 0 X & * , , , , , * - = X @ @ * @ @ * @ @ # X X + % $ @ =.J M h M V M M M N e ",
"4 4 & 2 s.q.} o.o.o.o.o.o.o.o.o.o.o.| ;.( 5 X X & , , , , , , , = X > > , - , , > > - o * - - # o u 8 4 4 4 4 4 4 4 4 8 ",
"e 3 @ 2 a.%.O. .o.o.o.o.o.o.o.o.o.o.o.o.( z X o % , , , , , , > # O , , > * , * , , @ * , , , # o 3 4 4 4 9 4 4 8 4 8 4 ",
"8 , + @ e 6.O. .o.o.o.o.o.o.o.o.o.o.} #.( 0 X X % , , , , , , > @ O > , , - , > , > * , , , > # @ T X.e 4 4 4 e 4 8 q 8 ",
"e 1 + . + 1 R :.o.o.o.o.o.o.o.o.o.o.o.#.( 5 X X % , , , , , , > @ O , , , , , , , , , , , , , + O %.M e 9 4 4 4 q 8 q 4 ",
"8 1 + ; U D ! :.o.o.o.o.o.o.o.o.o.o.o.o.( 5 . O & , , , , , , % @ O > , , , , , , , , , , , & X o u 9 8 4 e 4 9 8 4 8 9 ",
"w 1 + 1 p.:.o.O.o.o.o.} | ;.( ;.o.o.o.3.^ 5 X O % , , , , , , $ # + , , , , , , , , , , , & $ X X 3 9 9 q 4 q q q q ; = ",
"2 & + - l R ! F 3.o.o.o.| 1.( c ( F ~ F ( 5 X X % & & % & & % o X X & & & : & , * & = % + X o X O 4 9 9 8 4 ; = = = + @ ",
"+ X X + @ % & % = * = - - - & & & % & % = @ . o o o o o X X X X X X X X o O X + o X o X X X X X X @ @ @ @ @ + X X X X X ",
") m , e W W T T ) i o   X @ O . X . X X   o # % & % T T W W W T W G W Y W D V < o # 3 U Q T T T 4 P 3 1 1 # X S W W 4 P ",
"a i 6 u s s a a s 8 @ + # $ # $ @ @ @ @ # # % > - & a.a.r.r.r.7.6.6.6.6.6.:. .y o % 4 s a a s d e d e 6 q $ + %.A d e d ",
"4 4 4 4 4 4 4 4 q 1 @ + > > - - ; ; > > > - > , - & t.#.| | | | o.o.o.o.o. .O.H O $ 4 4 4 4 4 4 4 4 8 8 4 & + _ u q 4 8 ",
"e 4 4 8 4 8 4 4 8 2 + @ , , , , , , , , , , , > # & w.#.#.} #.| o.o.o.q.o.o. .f o & 4 4 4 4 4 4 4 4 q 8 q & + _ u 4 8 q ",
"4 8 4 4 8 4 8 8 8 3 @ @ , , , , , , , , , , , > @ * w.$.$.#.| #.o.o.o.5.o.o.o.H + # = 4 9 4 - 4 8 e 4 q q 3 + e 8 8 q 8 ",
"4 4 8 q 4 8 q 8 8 3 + O , , , , , , , , , , > > @ & t.O.O. .O. .o.o.o.o.o.o. .f o # $ 4 4 4 2 - 4 4 8 q 4 = o 3 8 q 4 4 ",
"4 e 4 8 8 4 e 4 8 1 @ # , , , , , , , , , , , > @ - t.O. .O.o.o. .O.o.o.o.o.:.U + $ 3 8 8 4 4 @ & 4 q 8 4 & o 3 e 8 q 9 ",
"4 4 4 4 8 8 4 e 3 & @ # , , , , , , , , , , > $ @ X : O.o.o.U :  .O. .;.o.o. .y + # - 4 4 9 4 X + ) u 8 4 & o 3 8 q 8 8 ",
"> 2 > 1 ; 1 - 2 $ $ O @ > % & & $ & & % & & > $ @ + X : o.~ @ % ~ x ! g f k ! 7 o # # & & & @ X X ; 3 = & # o 3 q q q 6 ",
"O @ + + o @ + @ o O o o O o X o o O # o # o $ X X X X X % @ X + # @ % @ @ % & @ X o o o o o X X X o @ o + o o + + + @ @ ",
"` ` J & , a.y.y.y.y.y.r._ G 3 3 3 3 3 3 4 , X X O > * X X X X X X X X @ Q ` ) ` _ _ _ _ ` ` 5 + 2 ) ) 4 T q U # X X P w ",
"p p u - q a.i s d d d d p u 9 9 9 8 9 9 < % . O > , , > > - - ; ; * % ) 6.6.6.=.6.6.#.=.6.#.y O 3 p u e u e i 3 $ o ..d ",
"8 8 2 + 3 ..4 4 4 4 8 4 4 4 8 8 8 8 8 4 = O O > , , , , , , , , , # % w.:.w.o.o.o.o.} } } } 0 o @ 4 8 6 4 9 4 9 & + _ p ",
"8 9 1 o 2 ` 4 4 4 8 4 9 4 9 4 9 4 9 4 q 1 @ O , , , , , , > , , > # % 6.o.6.t.o.o.o.o.o.o.o.y + X 4 6 q 8 4 8 4 @ o ` p ",
"8 8 , o 2 ` 4 4 8 4 8 4 w 4 e 4 9 q e 3 & @ + , , , , , , , , > , - $ r.:.o.o.o.o.o.o.o.o.o.Q + X 3 e 4 q 8 4 4 % o ..p ",
"8 8 1 + & u 8 4 4 4 4 8 4 4 4 4 4 8 8 4 , @ + , , > , , , , , , > # $ r.o.o.o.o.o.o.o.o. . .f O X 4 9 w 9 4 w 4 & + ) p ",
"8 8 1 + % 8 q 8 8 4 4 4 4 4 e 4 4 4 e 3 = # X # , , , > , , , , > @ $ r.o.o.o.o.o.o.o.o. . .y O X 4 9 w 4 9 4 4 & X w e ",
"8 q 1 + $ 8 q q 2 & & # & 4 4 4 4 4 q 2 # # O - # > > , > , > , - X @ o.:.o.} } ;.) ;.^  . .Q O X 4 4 w 4 8 4 & o X 3 4 ",
", $ $ @ $ 8 1 % @ X X X o & $ & $ & & $ # @ o : = O > % % % $ $ X X @ ~ ~ g ! g ! f f f y f w O + 3 3 & $ $ $ # X X 2 & ",
"@ @ @ @ @ # @ + o + X o X + + + + @ + + @ + + @ @ O o X o @ @ + + + + % @ + @ + @ O O O O O O X X @ @ @ @ + + @ + X + X ",
"%._ _ _ _ _ %.G p U 3 ; ; =...~ ~ %.%.X.%.%.%.X.( H o X - ......%.Q 4 3 2 X X O X O O O X X O O @ Q X._ X.X.$.X...; X X ",
"u e u u e u u e e u 1 @ ; a.o.o.:.:.5.:.6.o.6.6.^ g 5 X & u u u e u e 9 4 4 4 3 < 4 3 4 1 # Q 8 3 e u e u u e u 9 = X X ",
"4 4 4 q 4 4 4 4 4 8 2 + ; a.o.o.o.o.o.o.o.o.o.o.^ 0 6 X @ 3 4 4 4 4 4 q 4 9 9 9 q 6 8 4 % @ X.u 4 4 8 4 4 4 4 4 9 8 @ X ",
"4 4 8 8 9 9 q 8 4 4 , o ; t.o.o.o.o.o.o.o.o.o.:.^ f 6 X X - q 4 4 9 q 8 4 6 4 4 q 4 4 4 # @ X.e 4 4 8 4 9 4 6 8 9 8 & X ",
"8 4 6 4 9 4 8 8 , @ + X ; t.o.o.o.o.o.o.o.o.o.o.^ 0 5 X @ 3 4 q 9 4 8 q 8 8 e 4 4 e 4 4 # @ ` u 4 8 4 8 4 9 8 8 8 8 & X ",
"4 9 4 6 8 4 8 8 4 4 ; X ; 5.O.O.o.o.o.o. . .;.;.^ 0 7 X + ; 3 q 4 4 4 4 4 4 4 8 4 8 8 3 % + 4 6 4 8 4 4 8 4 8 8 8 9 % o ",
"8 4 8 8 4 8 4 q q , $ + ; 5. .O.o.o.o.o. . .;.;.! 0 5 X @ 3 q 4 9 4 3 - 4 4 8 q 8 4 8 4 $ + 4 8 4 4 4 4 4 8 4 8 8 3 % o ",
"8 q 4 4 4 4 4 4 2 # $ + ; 5.o.o.o.o. .:.) ;.;.! f 0 5 X X = 3 @ 3 $ = 3 3 @ 4 8 4 4 4 4 $ o 3 e 4 = $ 3 4 4 8 4 3 & o . ",
"3 > # # # # # # # # # + & ~ ~ H f E f E 7 7 7 7 7 5 O X + % 1 X + # @ X X + 3 3 = , & 2 # o 2 3 4 , $ # # # $ % o X X o ",
"@ + o o O O o X + @ @ # $ $ + + + + X + + + o + + + X X X + $ @ @ $ $ @ X X X X X # @ $ @ @ % # % % @ @ @ @ @ + X X O O ",
", , > : > > - O , ) i &.&.A @ # $ @ X X @ $ $ @ # # # @ @ e %.%.%.%.%.W @ X X X & X.} 6...r.' =.=.=.r.' O.' Q % X - > > ",
", , , > , , - O , _ 4 e e 3 & & & & # + = $ & & $ & & & = 8 e e e e e e 1 X X * ~ #.o.#.:.:.o.:.o.:.o.:.:. .f @ @ > , , ",
", , - = , , - + 1 ..8 4 q q q q q q > ; _ 4 4 4 4 4 4 4 8 8 q 8 4 q 6 4 + X @ %.#.o.o.o.O.O.o.o.o.o.o.o. .;.f O # & - , ",
", > > > , 3 - O 1 ..q 4 8 8 3 8 q e ; * %.q 8 q 8 q 8 q e 4 8 q q q w 4 @ @ $ t.o.o.o.o.o.o.o.o.o.o.o.o. . .y @ # $ - , ",
", , - = , , - o 1 ..4 4 8 8 8 8 8 3 @ ; %.q 4 8 8 8 q 8 4 8 q q 8 q 6 3 $ @ @ =.#.o.o.o.o.o.o.o.o.o.o.o. . .f O @ % , , ",
", , - & , , > @ > ..8 8 8 8 8 8 8 q ; ; %.8 8 q 4 6 9 9 9 e q 8 4 e w 4 % $ @ r.#.} o.o.o.o.#.} o.o.o.o. . .f O X @ > , ",
", , - = , , , % > ( 8 8 < 8 8 8 e 3 + ; %.9 9 9 9 e 3 4 3 3 8 q 4 4 e 3 $ @ @ ..#.o.o.o.o.o.} } o.:.o.o.} ;.f O X O - , ",
", - % = , > - @ & 9 8 8 8 8 3 8 4 1 + ; &.3 4 3 4 1 # $ @ @ 3 8 e 8 e 4 % @ @  .:.;.;.;.;.;.;.;.o.( ;.( :.( f @ # $ > , ",
"> = @ @ # # @ O # 8 3 < , # # # # # + * L @ # # # # # @ X . @ 3 2 3 3 , # @ @ U W W W H W E E W U y G 0 H 0 5 O @ % - - ",
"X X X X X X X X X X X X X X X X + . X X + X . X + . . + . + + . X X X X X X X + o X X o X o O X O X X X X X X X X X o X "
};
